
<svg xmlns="http://www.w3.org/2000/svg" viewBox="0 0 400 300" width="406" height="306" class="illustration styles_illustrationTablet__1DWOa"><g id="_373_architect_flatline" data-name="#373_architect_flatline"><path d="M118.08,259.86h-1.19a2,2,0,0,1-2-2.43l8.25-42.7h3.66Z" fill="#fff"></path><path d="M118.08,260.36h-1.19a2.54,2.54,0,0,1-2.49-3l8.24-42.7a.51.51,0,0,1,.5-.41h3.66a.47.47,0,0,1,.38.19.5.5,0,0,1,.11.41L118.57,260A.49.49,0,0,1,118.08,260.36Zm5.47-45.13-8.17,42.3a1.55,1.55,0,0,0,1.51,1.83h.78l8.52-44.13Z" fill="#231f20"></path><path d="M147.42,259.86h1.23a2,2,0,0,0,2-2.38l-8.26-42.75H138.7Z" fill="#fff"></path><path d="M148.65,260.36h-1.23a.49.49,0,0,1-.49-.4l-8.72-45.13a.5.5,0,0,1,.11-.41.47.47,0,0,1,.38-.19h3.66a.49.49,0,0,1,.49.41l8.26,42.75a2.51,2.51,0,0,1-2.46,3Zm-.82-1h.82a1.52,1.52,0,0,0,1.16-.54,1.51,1.51,0,0,0,.32-1.24L142,215.23h-2.64Z" fill="#231f20"></path><path d="M125.19,123c-.6,2.67-14.61,115-14.61,115h2.53l18-119.9Z" fill="#231f20"></path><path d="M113.11,238.47h-2.53a.52.52,0,0,1-.38-.17.51.51,0,0,1-.12-.39c.57-4.59,14-112.35,14.62-115a.51.51,0,0,1,.17-.28l5.88-4.92a.5.5,0,0,1,.57-.06.51.51,0,0,1,.25.51l-18,119.9A.51.51,0,0,1,113.11,238.47Zm-2-1h1.53l17.7-118.17-4.73,4C124.77,128.44,112.21,229,111.15,237.47Z" fill="#231f20"></path><polygon points="149.14 153.53 149.94 226.92 151.93 226.92 158.72 147.69 149.14 153.53" fill="#231f20"></polygon><path d="M151.93,227.42h-2a.49.49,0,0,1-.5-.49l-.8-73.39a.5.5,0,0,1,.24-.43l9.58-5.84a.51.51,0,0,1,.53,0,.49.49,0,0,1,.23.47L152.43,227A.5.5,0,0,1,151.93,227.42Zm-1.5-1h1l6.67-77.79-8.5,5.18Z" fill="#231f20"></path><polygon points="286.35 88.65 297.8 244.75 299.95 244.75 291.09 75.26 286.35 88.65" fill="#231f20"></polygon><path d="M300,245.25H297.8a.49.49,0,0,1-.49-.46L285.85,88.68a.36.36,0,0,1,0-.2l4.74-13.39a.5.5,0,0,1,1,.14l8.86,169.49a.5.5,0,0,1-.13.37A.52.52,0,0,1,300,245.25Zm-1.68-1h1.16L290.72,77.8l-3.87,10.92Z" fill="#231f20"></path><polygon points="260.85 164.41 262.38 254.04 264.76 254.04 265.76 150.54 260.85 164.41" fill="#231f20"></polygon><path d="M264.76,254.54h-2.38a.51.51,0,0,1-.5-.49l-1.53-89.63a.57.57,0,0,1,0-.18l4.91-13.86a.5.5,0,0,1,1,.17l-1,103.5A.49.49,0,0,1,264.76,254.54Zm-1.88-1h1.39l1-100-3.88,11Z" fill="#231f20"></path><polygon points="147.13 28.88 99.72 150.75 255.9 178.38 300.28 53.09 147.13 28.88" fill="#fff"></polygon><path d="M255.9,178.88h-.09L99.63,151.24a.49.49,0,0,1-.37-.67L146.67,28.7a.51.51,0,0,1,.54-.32L300.36,52.6a.5.5,0,0,1,.35.24.51.51,0,0,1,0,.42L256.37,178.55A.5.5,0,0,1,255.9,178.88ZM100.41,150.36l155.16,27.46,44-124.33L147.45,29.43Z" fill="#231f20"></path><path d="M208.42,131.81h-.11l-67-14.67a.52.52,0,0,1-.33-.25.51.51,0,0,1,0-.42l25.05-66a.49.49,0,0,1,.55-.32l56.12,9.48a.51.51,0,0,1,.35.25.47.47,0,0,1,0,.43l-2.24,5.51,11,1.89,2.73-6.21a.5.5,0,0,1,.54-.29l34.84,6a.47.47,0,0,1,.35.24.52.52,0,0,1,0,.42l-14.65,39.61a.5.5,0,0,1-.56.32l-35.15-7-11.05,30.69A.5.5,0,0,1,208.42,131.81Zm-66.37-15.54,66,14.46,11-30.68a.5.5,0,0,1,.57-.32l35.15,7L269.15,68,235.28,62.2l-2.72,6.21a.51.51,0,0,1-.55.29l-12-2.06a.51.51,0,0,1-.35-.25.47.47,0,0,1,0-.43l2.24-5.51-55.1-9.31Z" fill="#d1d3d4"></path><path d="M250,168.57h-.09L112.14,143.41a.47.47,0,0,1-.35-.24.54.54,0,0,1,0-.43L152.61,37a.51.51,0,0,1,.54-.32l135.16,21a.52.52,0,0,1,.36.23.54.54,0,0,1,0,.43L250.5,168.24A.52.52,0,0,1,250,168.57Zm-137.11-26,136.78,25L287.57,58.58,153.39,37.69Z" fill="#d1d3d4"></path><polygon points="217.52 167.51 214.97 174.83 139.17 161.57 141.62 153.99 217.52 167.51" fill="#fff"></polygon><path d="M215,175.33h-.09l-75.8-13.26a.48.48,0,0,1-.34-.23.53.53,0,0,1-.05-.41l2.46-7.58a.49.49,0,0,1,.56-.34L217.61,167a.47.47,0,0,1,.34.24.46.46,0,0,1,0,.41L215.44,175A.49.49,0,0,1,215,175.33Zm-75.15-14.15,74.82,13.08,2.22-6.36L142,154.56Z" fill="#231f20"></path><path d="M130.92,216h3.66a0,0,0,0,1,0,0v32.29a1.83,1.83,0,0,1-1.83,1.83h0a1.83,1.83,0,0,1-1.83-1.83V216a0,0,0,0,1,0,0Z" fill="#fff"></path><path d="M132.75,250.65a2.34,2.34,0,0,1-2.33-2.33V216a.5.5,0,0,1,.5-.5h3.66a.5.5,0,0,1,.5.5v32.29A2.33,2.33,0,0,1,132.75,250.65Zm-1.33-34.12v31.79a1.33,1.33,0,0,0,2.66,0V216.53Z" fill="#231f20"></path><path d="M145.65,202.36a58.46,58.46,0,0,0-25.79,0H107.74V211c0,5.55,11.2,10,25,10s25-4.49,25-10v-8.6Z" fill="#231f20"></path><path d="M132.75,221.5c-14.31,0-25.51-4.63-25.51-10.54v-8.6a.5.5,0,0,1,.5-.5H119.8a59,59,0,0,1,25.9,0h12.07a.5.5,0,0,1,.5.5V211C158.27,216.87,147.06,221.5,132.75,221.5Zm-24.51-18.64V211c0,5.18,11.22,9.54,24.51,9.54s24.52-4.36,24.52-9.54v-8.1H145.65l-.12,0a58.18,58.18,0,0,0-25.55,0l-.12,0Z" fill="#231f20"></path><ellipse cx="132.75" cy="202.36" rx="25.02" ry="10.04" fill="#fff"></ellipse><path d="M132.75,212.9c-14.31,0-25.51-4.63-25.51-10.54s11.2-10.55,25.51-10.55,25.52,4.63,25.52,10.55S147.06,212.9,132.75,212.9Zm0-20.09c-13.29,0-24.51,4.37-24.51,9.55s11.22,9.54,24.51,9.54,24.52-4.37,24.52-9.54S146,192.81,132.75,192.81Z" fill="#231f20"></path><path d="M157.47,239.59l-6.82,10s12.55,7.87,14.38,8.34,18.35.28,17.59-1.41-16.23-7.63-16.23-7.63l-.47-4.1Z" fill="#231f20"></path><path d="M170,258.58a38.21,38.21,0,0,1-5.12-.21c-1.85-.47-13.22-7.59-14.51-8.39a.47.47,0,0,1-.22-.33.51.51,0,0,1,.07-.38l6.82-10a.5.5,0,0,1,.67-.15l8.45,5.16a.52.52,0,0,1,.24.37l.43,3.8c4,1.53,15.48,6.09,16.23,7.79a.74.74,0,0,1-.13.82C182,258.24,175,258.58,170,258.58Zm-18.66-9.18c3.76,2.35,12.41,7.65,13.79,8,1.84.47,15.22.19,16.92-.85-1-1.12-8.71-4.49-15.86-7.23a.52.52,0,0,1-.32-.41l-.44-3.86-7.83-4.79Z" fill="#231f20"></path><path d="M172.58,238.27c-.19.29-6.66,6.48-6.66,6.48l-8.45-5.16L163,230.2Z" fill="#fff"></path><path d="M165.92,245.25a.48.48,0,0,1-.26-.07L157.21,240a.5.5,0,0,1-.17-.68l5.54-9.38a.47.47,0,0,1,.35-.24.49.49,0,0,1,.4.11l9.57,8.07a.5.5,0,0,1,.1.66c-.19.29-4.3,4.23-6.74,6.56A.49.49,0,0,1,165.92,245.25Zm-7.77-5.83,7.7,4.7c2.13-2,5-4.82,6-5.81L163.14,231Z" fill="#231f20"></path><path d="M194.84,260.42l.56,10.7,31.72-5.35s-8.35-5.72-21.86-7.13Z" fill="#231f20"></path><path d="M195.4,271.62a.51.51,0,0,1-.31-.11.52.52,0,0,1-.19-.36l-.56-10.7a.5.5,0,0,1,.41-.52l10.42-1.78h.14c13.48,1.41,22,7.16,22.1,7.22a.49.49,0,0,1,.2.52.5.5,0,0,1-.4.39l-31.73,5.35Zm0-10.78.51,9.7,29.85-5a53.31,53.31,0,0,0-20.45-6.36Z" fill="#231f20"></path><path d="M194.27,251.6c0,.28.57,8.82.57,8.82l10.42-1.78.47-8.54Z" fill="#fff"></path><path d="M194.84,260.92a.5.5,0,0,1-.31-.1.52.52,0,0,1-.19-.36c-.1-1.43-.57-8.58-.57-8.86a.5.5,0,0,1,.44-.49l11.45-1.51a.48.48,0,0,1,.4.13.5.5,0,0,1,.16.4l-.47,8.54a.49.49,0,0,1-.41.46l-10.42,1.79Zm0-8.88c.07,1.27.31,5,.5,7.8l9.48-1.63.41-7.54Z" fill="#231f20"></path><path d="M154.2,175.2s46.93-6,51.62,4.7S171,242.58,171,242.58l-12.62-9.49,17-35.92S135.8,203,133,193.79s20.65-16.9,20.65-16.9Z" fill="#231f20"></path><path d="M171,243.08a.49.49,0,0,1-.3-.1l-12.62-9.49a.51.51,0,0,1-.16-.62l16.64-35.08c-6.15.84-39.35,5-42.05-3.86-2.8-9.15,18.09-16.54,20.73-17.43l.49-1.45a.48.48,0,0,1,.41-.34c1.93-.25,47.35-5.93,52.14,5S173,240.75,171.4,242.89A.53.53,0,0,1,171,243.08Zm-12-10.15,11.9,8.95c1.73-2.29,10.57-14.13,18.85-26.9C205,191.47,206.65,183,205.36,180.1c-1.83-4.18-11.2-6.28-27.1-6.06-11,.15-21.74,1.39-23.69,1.62l-.46,1.39a.51.51,0,0,1-.32.32c-.23.07-23,7.65-20.32,16.27,2.2,7.21,31,4.63,41.87,3a.51.51,0,0,1,.47.2.49.49,0,0,1,.05.51Zm-5.36-56h0Z" fill="#231f20"></path><path d="M119.38,181.87c0,1.12-5.07,15.48,7.6,22.52s64.2,4.23,64.2,4.23l1,45.42,14.21-.94s8.07-44.11,1.5-55S141.06,178,141.06,178Z" fill="#231f20"></path><path d="M192.17,254.54a.49.49,0,0,1-.5-.49l-1-44.91c-5.73.3-51.83,2.42-63.95-4.31-7.64-4.24-10.34-11.7-8-22.16a7.59,7.59,0,0,0,.16-.8.51.51,0,0,1,.41-.49L141,177.53h.17c2.46.37,60.56,9.35,67.17,20.32s-1.1,53.53-1.44,55.34a.49.49,0,0,1-.45.41l-14.22.94Zm-1-46.42a.5.5,0,0,1,.34.13.52.52,0,0,1,.16.36l1,44.9,13.3-.88c.77-4.35,7.57-44.2,1.5-54.27-6.27-10.38-63.86-19.44-66.39-19.83l-21.25,3.77-.12.58c-2.22,10,.32,17.07,7.53,21.08,12.39,6.88,63.41,4.18,63.92,4.16Z" fill="#231f20"></path><path d="M165.54,98.49c-1.59,0-2.93-1.72-3-3.89a4.81,4.81,0,0,1,.71-2.79,2.62,2.62,0,0,1,2.09-1.31c1.63-.06,3,1.68,3.1,3.88s-1.17,4-2.8,4.11Zm-.14-7h0a1.62,1.62,0,0,0-1.29.86,3.76,3.76,0,0,0-.55,2.2c.06,1.63,1,3,2.06,2.93s1.9-1.45,1.84-3.07h0C167.36,92.82,166.44,91.49,165.4,91.49Z" fill="#231f20"></path><path d="M147.39,112.83a12,12,0,0,1-6,.09c-1.19-.27-2.63-1.19-2.23-2.35l1.54-.72a24.42,24.42,0,0,1-6.89-11.93,16.51,16.51,0,0,1,2.61-13.3,8,8,0,0,1,5.46-3.45l-3.74-.3a16.45,16.45,0,0,1,13.12-5.18l-2.47-1.53a14.31,14.31,0,0,1,15.44,4.26,6.09,6.09,0,0,1,1.55,3.2c.2,2-1.66,3.3-3.07,4.42,1.51,1.84,2.22,2.28,2,4.66A19.13,19.13,0,0,1,162.6,97a47.1,47.1,0,0,1-3.95,5.84C155.5,107.21,152.1,111.5,147.39,112.83Z" fill="#fff"></path><path d="M144.3,113.76a13.41,13.41,0,0,1-3-.36,3.92,3.92,0,0,1-2.46-1.59,1.68,1.68,0,0,1-.13-1.4.5.5,0,0,1,.26-.29l.9-.42A24.59,24.59,0,0,1,133.3,98,17,17,0,0,1,136,84.32a10.41,10.41,0,0,1,3.22-2.86l-1.15-.09a.52.52,0,0,1-.43-.32.5.5,0,0,1,.1-.52,17.11,17.11,0,0,1,11.69-5.37l-.94-.58a.49.49,0,0,1-.23-.47.5.5,0,0,1,.33-.42,14.88,14.88,0,0,1,16,4.41,6.58,6.58,0,0,1,1.66,3.47c.21,2.12-1.48,3.46-2.86,4.55l.21.25c1.16,1.35,1.79,2.1,1.57,4.37A19.89,19.89,0,0,1,163,97.25a34.44,34.44,0,0,1-3.07,4.66l-.92,1.24c-3.17,4.39-6.67,8.79-11.53,10.16h0A11.49,11.49,0,0,1,144.3,113.76Zm3.09-.93h0Zm-7.81-1.91a.71.71,0,0,0,.09.4,2.91,2.91,0,0,0,1.81,1.11,11.35,11.35,0,0,0,5.77-.08h0c4.55-1.29,7.92-5.54,11-9.78l.93-1.26a33.48,33.48,0,0,0,3-4.51,19,19,0,0,0,2-6.15c.18-1.86-.24-2.34-1.34-3.63l-.55-.66a.46.46,0,0,1-.11-.37.52.52,0,0,1,.18-.34l.37-.29c1.32-1,2.68-2.1,2.52-3.69a5.63,5.63,0,0,0-1.43-2.93A13.9,13.9,0,0,0,150,74.31l1.54,1a.51.51,0,0,1,.21.58.5.5,0,0,1-.51.34,16.1,16.1,0,0,0-12,4.26l2.67.22a.49.49,0,0,1,.46.5.48.48,0,0,1-.45.49c-2.45.21-4.25,2.13-5.11,3.26a16,16,0,0,0-2.52,12.89A23.88,23.88,0,0,0,141,109.5a.5.5,0,0,1-.14.81Z" fill="#231f20"></path><path d="M164.54,97.81s4,5.68,3.25,6.91-3.41.5-3.41.5" fill="#fff"></path><path d="M166,105.94a7.12,7.12,0,0,1-1.72-.23.5.5,0,0,1,.26-1c.59.16,2.4.45,2.86-.29.3-.52-1.21-3.49-3.23-6.36a.5.5,0,1,1,.81-.57c1.26,1.79,4.11,6.1,3.27,7.46A2.51,2.51,0,0,1,166,105.94Z" fill="#231f20"></path><path d="M163,85.08c2.5,1.92,2.44,11.24,2.5,14q.14,5.77,0,11.56c-.06,2.44-6.38,2.68-7.52,2l-1.21,9.88s-.52.65-5.69-1.55-5.25-3.42-5.25-3.42l.08-11.14s4.18-.1,6.5-5.15,2-12.69,2-12.69S160.53,83.2,163,85.08Z" fill="#fff"></path><path d="M156.31,123.07a17.15,17.15,0,0,1-5.46-1.67c-5.06-2.17-5.53-3.49-5.55-3.84l.08-11.19a.49.49,0,0,1,.49-.49c.16,0,3.9-.17,6.06-4.86,2.24-4.88,1.94-12.38,1.94-12.46a.51.51,0,0,1,.17-.4c.66-.57,6.55-5.54,9.23-3.48h0c2.21,1.69,2.6,7.84,2.69,13.63V99c.09,3.85.09,7.75,0,11.59a2.25,2.25,0,0,1-1.38,1.91,10.85,10.85,0,0,1-6.22.74l-1.14,9.28a.49.49,0,0,1-.1.25A1,1,0,0,1,156.31,123.07Zm-10-5.62c.09.18.79,1.25,4.95,3,3.29,1.4,4.59,1.6,5,1.6l1.17-9.53a.49.49,0,0,1,.27-.39.48.48,0,0,1,.48,0,9.34,9.34,0,0,0,5.9-.52c.56-.3.85-.66.86-1.06.09-3.82.09-7.7,0-11.53v-.75c-.05-3.07-.18-11.22-2.29-12.85h0c-1.67-1.27-6.11,1.89-7.79,3.29,0,1.38.09,8-2,12.68-2,4.3-5.22,5.2-6.45,5.39Z" fill="#231f20"></path><path d="M165.29,107.75s-1.5.47-5.24-2.73" fill="#fff"></path><path d="M165,108.28c-.73,0-2.39-.38-5.3-2.88a.5.5,0,0,1,.65-.76c3.36,2.88,4.77,2.63,4.78,2.62a.52.52,0,0,1,.6.36.49.49,0,0,1-.32.6A1.35,1.35,0,0,1,165,108.28Z" fill="#231f20"></path><path d="M158,112.61s-3.31-.92-4.9-3.12c0,0-1.75,7.34,4.18,9Z" fill="#231f20"></path><path d="M157.23,119h-.13c-6.32-1.74-4.56-9.5-4.54-9.58A.49.49,0,0,1,153,109a.47.47,0,0,1,.5.19,9.72,9.72,0,0,0,4.64,2.93.51.51,0,0,1,.36.55l-.72,5.86a.51.51,0,0,1-.22.35A.46.46,0,0,1,157.23,119Zm-3.86-8.35c-.21,1.88-.19,5.83,3.44,7.19l.59-4.84A11.42,11.42,0,0,1,153.37,110.61Z" fill="#231f20"></path><ellipse cx="162.42" cy="93.68" rx="1.38" ry="0.54" transform="translate(66.78 254.96) rotate(-89.31)" fill="#231f20"></ellipse><path d="M153.31,98.57a.5.5,0,0,1-.13-1l14.62-3.67a.5.5,0,0,1,.6.37.49.49,0,0,1-.36.6l-14.61,3.67Z" fill="#231f20"></path><path d="M157.23,100.5a5.14,5.14,0,0,0-1.16-2.61,7.43,7.43,0,0,0-1.44-1.71,2.53,2.53,0,0,0-2.1-.57,2.32,2.32,0,0,0-1.47,1.24,4.38,4.38,0,0,0-.43,1.92,8.26,8.26,0,0,0,4,7.22l-.22-.22" fill="#fff"></path><path d="M154.66,106.49a.47.47,0,0,1-.25-.07,8.82,8.82,0,0,1-4.28-7.66,4.83,4.83,0,0,1,.48-2.14,2.84,2.84,0,0,1,1.81-1.5,3,3,0,0,1,2.51.67,7.74,7.74,0,0,1,1.56,1.81,5.65,5.65,0,0,1,1.24,2.87.51.51,0,0,1-.48.53.5.5,0,0,1-.52-.48,5,5,0,0,0-1.07-2.35,7.21,7.21,0,0,0-1.34-1.6,2,2,0,0,0-1.67-.47,1.8,1.8,0,0,0-1.15,1,3.9,3.9,0,0,0-.37,1.71,7.83,7.83,0,0,0,3.33,6.48.46.46,0,0,1,.34.15l.22.22a.5.5,0,0,1,0,.65A.51.51,0,0,1,154.66,106.49Z" fill="#231f20"></path><path d="M220.07,113.45a24.77,24.77,0,0,0-3.73.84c-.49.32-1.37.95-1.37.95a3.33,3.33,0,0,0,1.27.41c.46,0,3.09-.51,3.09-.51" fill="#fff"></path><path d="M216.19,116.15a3.83,3.83,0,0,1-1.46-.46.52.52,0,0,1-.26-.41.5.5,0,0,1,.21-.44s.89-.64,1.39-1A19.79,19.79,0,0,1,220,113a.51.51,0,0,1,.58.41.5.5,0,0,1-.42.57,21.72,21.72,0,0,0-3.54.78c-.17.11-.39.25-.6.4l.2,0c.31,0,2-.32,3-.5a.5.5,0,1,1,.17,1c-.27.05-2.67.48-3.14.51Z" fill="#231f20"></path><path d="M214.81,123.59l3.68-4a19.53,19.53,0,0,1,.42-4.71c.49-1.41,1.48-3.1,2-2.75s0,3.38.85,3.8,2.39-.91,2.39-1.83-1.55-2-1.34-2.74.57-1.76,2.26-.85,4,2.6,3.94,5.11-7.56,13.66-7.56,13.66Z" fill="#fff"></path><path d="M221.42,129.83a.52.52,0,0,1-.33-.12L214.48,124a.47.47,0,0,1-.17-.35.51.51,0,0,1,.13-.37l3.55-3.79a18.1,18.1,0,0,1,.45-4.69c.33-1,1.19-2.81,2.05-3.09a.75.75,0,0,1,.68.11c.41.29.44.93.49,1.91,0,.5.07,1.69.29,1.85a.91.91,0,0,0,.74-.19,1.89,1.89,0,0,0,.93-1.2,2.55,2.55,0,0,0-.61-1.07c-.43-.57-.88-1.17-.71-1.8a2,2,0,0,1,1-1.47,2.23,2.23,0,0,1,2,.31c2.81,1.53,4.27,3.45,4.21,5.56-.07,2.57-6.87,12.78-7.64,13.93a.51.51,0,0,1-.35.22Zm-5.89-6.28,5.79,5c3-4.46,7.11-11.26,7.16-12.93.06-2.16-2-3.72-3.68-4.65-.67-.36-1-.33-1.1-.27s-.33.44-.43.81c-.05.16.32.65.54.94a3,3,0,0,1,.81,1.67,2.79,2.79,0,0,1-1.41,2,1.74,1.74,0,0,1-1.71.23c-.74-.37-.79-1.55-.84-2.7,0-.28,0-.67-.07-.93a7.82,7.82,0,0,0-1.21,2.29,19.54,19.54,0,0,0-.39,4.54.5.5,0,0,1-.14.35Z" fill="#231f20"></path><path d="M163.75,125.86c.2,0,3-9.47,3.31-10.29a18.85,18.85,0,0,1,2.18-4.6,5.29,5.29,0,0,1,1.61-1.55.49.49,0,0,1,.42-.07.41.41,0,0,1,.19.27,1.71,1.71,0,0,1-.1,1.33c.43-.8.86-2.35,2.1-2.2,1.47.18,1.1,1.88.57,2.71,0,0,1.19-2.46,2.32-1.63a1.3,1.3,0,0,1,.35,1.88s.78-1.9,1.9-1,.49,2.25,0,3.16-4.36,5.78-4.36,5.78,3.45-2.89,4.15-2.19-5.22,7-6.66,10.14Z" fill="#fff"></path><path d="M171.73,128.05h-.1l-8-1.69h0a.5.5,0,0,1-.39-.59.55.55,0,0,1,.11-.23c.3-.62,1.65-5,2.39-7.44.41-1.37.74-2.44.83-2.69a19.24,19.24,0,0,1,2.24-4.72,5.5,5.5,0,0,1,1.78-1.69.94.94,0,0,1,.87-.09.74.74,0,0,1,.28.22,1.82,1.82,0,0,1,1.76-.86,1.56,1.56,0,0,1,1.31.87,2.06,2.06,0,0,1,.12.35,1.91,1.91,0,0,1,.59-.29,1.35,1.35,0,0,1,1.11.23,2.17,2.17,0,0,1,.64.74,1.71,1.71,0,0,1,.39-.17,1.35,1.35,0,0,1,1.22.27c1.56,1.17.49,3.15.14,3.8a37.12,37.12,0,0,1-2.32,3.18c.86-.44,1.61-.6,2-.18.65.65-.2,1.83-2.75,5.16a36.91,36.91,0,0,0-3.8,5.54A.5.5,0,0,1,171.73,128.05Zm-7.28-2.55,7,1.48a42.5,42.5,0,0,1,3.74-5.37,31.48,31.48,0,0,0,2.69-3.83,13.57,13.57,0,0,0-3.33,2.2.49.49,0,0,1-.67,0,.48.48,0,0,1,0-.66c1.07-1.35,3.92-5,4.31-5.7.71-1.32.75-2.07.14-2.53-.2-.15-.31-.12-.35-.11a1.29,1.29,0,0,0-.6.6,1.76,1.76,0,0,1-.25.45.48.48,0,0,1-.64.14.49.49,0,0,1-.22-.62,2.63,2.63,0,0,1,.2-.41.79.79,0,0,0-.39-.88.27.27,0,0,0-.27-.06c-.38.09-.84.7-1.12,1.17q-.1.21-.21.39a.51.51,0,0,1-.67.16.49.49,0,0,1-.2-.65s.09-.18.19-.36a1.81,1.81,0,0,0,.15-1.32c0-.11-.16-.27-.52-.31-.6-.07-1,.54-1.35,1.42-.09.19-.17.36-.25.51h0a.5.5,0,0,1-.68.21.51.51,0,0,1-.2-.68h0a1.18,1.18,0,0,0,.11-.8,4.51,4.51,0,0,0-1.38,1.35,17.92,17.92,0,0,0-2.12,4.48c-.09.25-.41,1.3-.82,2.64C165.45,122.5,164.83,124.52,164.45,125.5Z" fill="#231f20"></path><path d="M168.36,121s-26.17-12.86-37.72,1.5-16,59.13-12.67,64.76c0,0,28.15,2.07,41.39-13.7l5.89-28.82s24.24,21.06,38.32,10.11a69.39,69.39,0,0,0,20-25.31l-8.45-7.32s-17.74,16.89-24.78,14.64S168.36,121,168.36,121Z" fill="#6c63ff"></path><path d="M201.13,192.22a.57.57,0,0,1-.18,0c-7-2.58-45.61-11.16-46-11.25a.5.5,0,0,1-.38-.6.51.51,0,0,1,.6-.38c1.59.36,39.05,8.68,46.13,11.29a.5.5,0,0,1,.29.65A.48.48,0,0,1,201.13,192.22Z" fill="#fff"></path><path d="M167.62,209.67a.5.5,0,0,1,0-1l23.56-.55a.5.5,0,0,1,.51.48.51.51,0,0,1-.49.52l-23.56.55Z" fill="#fff"></path><path d="M233.83,111.27c-1.79,0-12.69,2.19-12.69,2.19l.09,1.33s11.75-1.87,12.78-2.1S235.63,111.27,233.83,111.27Z" fill="#fff"></path><path d="M221.23,115.29a.51.51,0,0,1-.31-.11.52.52,0,0,1-.19-.36l-.08-1.33a.49.49,0,0,1,.4-.52c.44-.09,11-2.2,12.78-2.2,1.39,0,1.62.67,1.65,1,.07.63-.53,1.27-1.37,1.46-1,.23-12.32,2-12.8,2.1Zm.44-1.43,0,.35c2.32-.37,11.33-1.81,12.21-2a.9.9,0,0,0,.57-.37,2.51,2.51,0,0,0-.64-.07C232.5,111.77,225.54,113.09,221.67,113.86Z" fill="#231f20"></path><path d="M179.4,154.49l-.16,0c-11.35-3.74-24-18.12-24.56-18.73a.51.51,0,0,1,0-.71.49.49,0,0,1,.7.05c.13.15,13,14.78,24.13,18.44a.49.49,0,0,1,.31.63A.48.48,0,0,1,179.4,154.49Z" fill="#231f20"></path><polygon points="263.31 200.92 293.91 191.72 294.25 196.32 261.55 205.53 263.31 200.92" fill="#231f20"></polygon><path d="M261.55,206a.49.49,0,0,1-.37-.16.53.53,0,0,1-.1-.51l1.76-4.62a.5.5,0,0,1,.32-.3l30.61-9.2a.54.54,0,0,1,.43.07.51.51,0,0,1,.21.38l.34,4.6a.5.5,0,0,1-.36.51L261.69,206Zm2.14-4.7-1.32,3.45L293.72,196l-.26-3.57Z" fill="#231f20"></path><path d="M251.8,111.18h-.1l-15.39-3.29a.49.49,0,0,1-.36-.67l1.35-3.38a.5.5,0,0,1,.93.37L237.1,107l14.39,3.07,1.35-3.4a.5.5,0,0,1,.65-.28.49.49,0,0,1,.28.65l-1.5,3.79A.51.51,0,0,1,251.8,111.18Z" fill="#d1d3d4"></path><path d="M219.62,100.72a.47.47,0,0,1-.17,0,.51.51,0,0,1-.31-.64L223,89.29l-5.58-9.08a.5.5,0,0,1,.85-.53L224,89a.5.5,0,0,1,.05.43l-3.94,11A.51.51,0,0,1,219.62,100.72Z" fill="#d1d3d4"></path><path d="M227.36,80.44a.63.63,0,0,1-.19,0,.51.51,0,0,1-.28-.65L231.63,68a.52.52,0,0,1,.66-.27.49.49,0,0,1,.27.65l-4.74,11.73A.48.48,0,0,1,227.36,80.44Z" fill="#d1d3d4"></path><path d="M165.9,68.71a.49.49,0,0,1-.49-.45L164.17,55.6a.5.5,0,0,1,1-.09l1.23,12.65a.5.5,0,0,1-.45.55Z" fill="#d1d3d4"></path><path d="M181.88,126a.57.57,0,0,1-.18,0,.51.51,0,0,1-.29-.65l12.72-32.48a.5.5,0,0,1,.93.36l-12.72,32.48A.48.48,0,0,1,181.88,126Z" fill="#d1d3d4"></path><path d="M249,146.19h-.1l-22.38-4.37a.5.5,0,0,1-.4-.58.51.51,0,0,1,.59-.4l22.38,4.37a.49.49,0,0,1,.4.58A.51.51,0,0,1,249,146.19Z" fill="#d1d3d4"></path><path d="M246.78,152h-.09l-22.39-4.37a.48.48,0,0,1-.39-.58.5.5,0,0,1,.58-.4L246.88,151a.48.48,0,0,1,.39.58A.49.49,0,0,1,246.78,152Z" fill="#d1d3d4"></path><path d="M243.53,157.49h-.1l-22.38-4.36a.51.51,0,0,1-.4-.59.5.5,0,0,1,.59-.39l22.38,4.36a.5.5,0,0,1-.09,1Z" fill="#d1d3d4"></path><path d="M200,74.49h-.08l-17.27-3a.47.47,0,0,1-.35-.24.5.5,0,0,1,0-.43l6.31-16.62a.5.5,0,0,1,.64-.29.49.49,0,0,1,.29.64l-6.09,16.06,16.27,2.79,6.31-16a.52.52,0,0,1,.65-.29.5.5,0,0,1,.28.65l-6.45,16.41A.51.51,0,0,1,200,74.49Z" fill="#d1d3d4"></path><path d="M191.13,49.94H191l-21.65-3.84a.5.5,0,0,1,.18-1L191.22,49a.5.5,0,0,1-.09,1Z" fill="#d1d3d4"></path><path d="M250.37,106.8a.5.5,0,0,1-.39-.18l-9.45-11.53a.5.5,0,0,1,.07-.7.5.5,0,0,1,.71.07L250.75,106a.5.5,0,0,1-.07.71A.51.51,0,0,1,250.37,106.8Z" fill="#d1d3d4"></path></g></svg>