
<svg xmlns="http://www.w3.org/2000/svg" viewBox="0 0 400 300" width="406" height="306" class="illustration styles_illustrationTablet__1DWOa"><g id="_484_great_idea_flatline" data-name="#484_great_idea_flatline"><path d="M108.73,262.84c5.22,4.37,11.76,6.84,18.28,8.83,2.73.84,5.49,1.6,8.26,2.29H255.88c2.05,0,7-6.76,8-8.66a31.08,31.08,0,0,0,2.72-16.42c-.87-6.83-5.06-13-5.45-19.86-.25-4.4,1.08-8.77,1-13.18-.23-9.55-7.93-17.37-16.08-21.44-4.91-2.46-9.3-10.71-10.54-15.78-1.56-6.38-3.86-9.79-8-15.18a27.94,27.94,0,0,1-2.51-3.63c-1.94-3.55-2.25-7.73-3.38-11.61a10.76,10.76,0,0,0-2.29-4.5,8.94,8.94,0,0,0-6.21-2.46c-3.9-.12-5.23,1.24-8.39-1-2.34-1.65-3.26-4.3-6.37-5a23.17,23.17,0,0,0-28.26,21c-.14,2,0,4.08-.86,5.9s-2.36,3-3.4,4.66c-3.22,5-.88,11.79-2.73,17.45-1.72,5.29-6.77,8.72-11.78,11.13s-10.44,4.3-14.43,8.18c-6.18,6-8.09,16.08-15.59,20.33-9.4,5.33-19.74,8.19-20.9,21.12C99.76,251.83,103.51,258.46,108.73,262.84Z" fill="#fff"></path><path d="M255.88,274.46H135.15c-2.89-.73-5.68-1.5-8.29-2.3-6.07-1.86-13-4.37-18.45-8.93h0c-5.92-5-9.12-11.78-8.54-18.22,1-11.05,8.5-14.91,16.44-19,1.55-.79,3.15-1.62,4.71-2.5,4.2-2.38,6.57-6.59,9.08-11,1.84-3.25,3.73-6.61,6.42-9.22,3.2-3.12,7.34-5,11.34-6.79,1.08-.48,2.15-1,3.21-1.48,6.38-3.07,10.15-6.61,11.53-10.83a25.13,25.13,0,0,0,.81-7.53c0-3.47.05-7.06,2-10a17.56,17.56,0,0,1,1.49-1.92,12.17,12.17,0,0,0,1.88-2.68,12,12,0,0,0,.75-4.46c0-.42,0-.85.06-1.27a24.27,24.27,0,0,1,12.08-19.05,23.83,23.83,0,0,1,16.79-2.42,8.22,8.22,0,0,1,4.42,3.06,12.86,12.86,0,0,0,2.13,2,5.87,5.87,0,0,0,5,1.06,20.69,20.69,0,0,1,3.17-.17,9.28,9.28,0,0,1,6.55,2.61,11.18,11.18,0,0,1,2.41,4.7c.38,1.31.67,2.66.95,4a28,28,0,0,0,2.39,7.54,28.16,28.16,0,0,0,2.46,3.56c4,5.14,6.48,8.73,8.1,15.37,1.18,4.8,5.52,13.07,10.29,15.45,7.74,3.87,16.1,11.65,16.35,21.88a40.62,40.62,0,0,1-.5,6.36,36.07,36.07,0,0,0-.47,6.8c.2,3.58,1.5,7.06,2.75,10.43a42.7,42.7,0,0,1,2.69,9.4,31.5,31.5,0,0,1-2.77,16.7C263.41,267.31,258.29,274.46,255.88,274.46Zm-120.55-1H255.88c1.63,0,6.45-6.23,7.53-8.39a30.49,30.49,0,0,0,2.67-16.13,42.31,42.31,0,0,0-2.64-9.17c-1.28-3.44-2.6-7-2.81-10.72a37.8,37.8,0,0,1,.48-7,39.1,39.1,0,0,0,.49-6.21c-.24-9.78-8.32-17.26-15.8-21-5.1-2.56-9.56-11-10.81-16.11-1.52-6.23-3.69-9.5-7.92-15a29.21,29.21,0,0,1-2.55-3.7,28.22,28.22,0,0,1-2.48-7.81c-.28-1.29-.57-2.63-.94-3.9a10.45,10.45,0,0,0-2.17-4.29,8.29,8.29,0,0,0-5.86-2.3,19.08,19.08,0,0,0-3,.17,6.79,6.79,0,0,1-5.63-1.24,13.35,13.35,0,0,1-2.3-2.18,7.39,7.39,0,0,0-3.9-2.76,22.91,22.91,0,0,0-16.08,2.32,23.27,23.27,0,0,0-11.57,18.25c0,.41-.05.83-.06,1.25a13.15,13.15,0,0,1-.84,4.83,12.68,12.68,0,0,1-2,2.9,20.15,20.15,0,0,0-1.41,1.82c-1.76,2.74-1.78,6-1.81,9.51a26.06,26.06,0,0,1-.86,7.83c-1.47,4.49-5.41,8.23-12,11.42-1.07.51-2.15,1-3.24,1.49-3.93,1.77-8,3.6-11.06,6.59-2.58,2.51-4.44,5.81-6.24,9-2.47,4.38-5,8.9-9.46,11.42-1.57.89-3.18,1.72-4.74,2.52-7.69,4-15,7.7-15.9,18.2-.54,6,2.59,12.68,8.18,17.36h0c5.3,4.45,12.13,6.92,18.11,8.75C129.73,272,132.48,272.75,135.33,273.46Z" fill="#231f20"></path><path d="M199.59,120.85c-2.86-.32-5.72-.76-8.59-.94-4.79-.28-7.53-2.89-8.13-7.43-.92-7-4-13.07-7.67-19a38.24,38.24,0,0,1-5.36-28.62C174,44.4,192,33.74,213,38.16c31,6.52,36.25,39.92,17.36,60.61-5.1,5.59-10,11-12.7,18.23-1.51,4-4.77,5.52-9.06,4.88C205.62,121.44,202.6,121.19,199.59,120.85Z" fill="#fff"></path><path d="M210.4,122.52a13.38,13.38,0,0,1-1.86-.14c-2-.31-4.14-.52-6.16-.73l-2.84-.3h0L196.9,121c-1.94-.25-4-.5-5.93-.62-5-.3-8-3-8.59-7.87-1-7.42-4.39-13.67-7.6-18.81a39,39,0,0,1-5.43-29c2-9.71,7.06-17.46,14.64-22.43,8-5.26,18.36-6.9,29.12-4.64,13.62,2.87,23.23,11,27.07,22.9,4.14,12.86.52,27.62-9.44,38.53-4.85,5.32-9.87,10.81-12.6,18.08A7.76,7.76,0,0,1,210.4,122.52Zm-10.75-2.17c.94.11,1.89.21,2.83.3,2,.21,4.14.43,6.21.74,4.21.62,7.15-1,8.51-4.56,2.8-7.45,7.88-13,12.8-18.4,9.72-10.65,13.26-25,9.23-37.55-3.72-11.55-13.07-19.44-26.32-22.23-10.51-2.21-20.58-.61-28.37,4.49-7.36,4.82-12.27,12.36-14.22,21.8a37.52,37.52,0,0,0,5.3,28.26c3.28,5.23,6.76,11.6,7.75,19.21.57,4.38,3.15,6.74,7.66,7,2,.12,4,.37,6,.62l2.62.31Z" fill="#231f20"></path><rect x="183.62" y="120.86" width="30.84" height="8.76" rx="3.78" transform="translate(15.13 -21.32) rotate(6.37)" fill="#fff"></rect><path d="M210.56,131.41a4,4,0,0,1-.49,0l-23.15-2.58a4.26,4.26,0,0,1-2.86-1.58,4.21,4.21,0,0,1-.91-3.15l.13-1.2a4.31,4.31,0,0,1,1.58-2.87,4.25,4.25,0,0,1,3.15-.9l23.15,2.58a4.28,4.28,0,0,1,3.77,4.72l-.13,1.21a4.26,4.26,0,0,1-1.58,2.86A4.22,4.22,0,0,1,210.56,131.41Zm-.38-1a3.28,3.28,0,0,0,3.62-2.89l.14-1.21a3.25,3.25,0,0,0-.7-2.4,3.2,3.2,0,0,0-2.2-1.21l-23.14-2.59a3.23,3.23,0,0,0-2.41.7,3.18,3.18,0,0,0-1.21,2.19l-.14,1.21A3.28,3.28,0,0,0,187,127.8Z" fill="#231f20"></path><rect x="182.65" y="129.57" width="30.84" height="8.76" rx="3.78" transform="translate(16.09 -21.16) rotate(6.37)" fill="#fff"></rect><path d="M209.58,140.12a3.87,3.87,0,0,1-.48,0L186,137.51a4.31,4.31,0,0,1-2.87-1.58,4.26,4.26,0,0,1-.9-3.15l.13-1.2A4.28,4.28,0,0,1,187,127.8l23.15,2.59a4.28,4.28,0,0,1,3.78,4.72l-.14,1.21a4.29,4.29,0,0,1-4.24,3.8Zm-23-11.34a3.26,3.26,0,0,0-3.25,2.91l-.13,1.2a3.28,3.28,0,0,0,2.89,3.62l23.15,2.59h0a3.28,3.28,0,0,0,3.62-2.89L213,135a3.26,3.26,0,0,0-2.89-3.62l-23.15-2.58A2.23,2.23,0,0,0,186.55,128.78Z" fill="#231f20"></path><path d="M209.47,139.63c-.37,3.28-6,5.35-12.55,4.62s-11.59-4-11.23-7.28Z" fill="#231f20"></path><path d="M199.58,144.9a23.17,23.17,0,0,1-2.72-.16,19.94,19.94,0,0,1-8.43-2.75c-2.28-1.49-3.43-3.29-3.23-5.07a.5.5,0,0,1,.55-.44l23.77,2.65a.49.49,0,0,1,.34.19.48.48,0,0,1,.1.37C209.62,142.81,205.25,144.9,199.58,144.9Zm-13.4-7.37c.11,1.24,1.08,2.5,2.8,3.62a18.89,18.89,0,0,0,8,2.6c5.82.65,11.05-1,11.9-3.68Z" fill="#231f20"></path><path d="M207.36,117.56a.5.5,0,0,1-.5-.48,93,93,0,0,1,1.65-22.45,28,28,0,0,1-10.41-.35c0,7-1.38,14-2.73,20.84l-.16.85a.51.51,0,0,1-.59.39.49.49,0,0,1-.39-.59l.16-.85c1.36-6.84,2.75-13.87,2.71-20.88a26.56,26.56,0,0,1-11.47-6.25,14.21,14.21,0,0,1-4.22-6.27,7.71,7.71,0,0,1,1.42-7.41,7.29,7.29,0,0,1,10.64.68c1.95,2.77,3.36,7.17,4.19,13.09a44.32,44.32,0,0,1,.43,5.38,26.85,26.85,0,0,0,10.64.32c.06-.27.12-.54.19-.81l.16-.71c1.27-5.5,2.85-12.34,7.29-16.25.72-.63,3.26-2.66,5.58-2.13a3.47,3.47,0,0,1,2.4,2.23,11.24,11.24,0,0,1-1.16,10.16,18.25,18.25,0,0,1-7.95,6.54,25.71,25.71,0,0,1-5.67,1.83,92,92,0,0,0-1.71,22.6.51.51,0,0,1-.48.52Zm13.81-43a7.27,7.27,0,0,0-4.14,2c-4.2,3.69-5.74,10.37-7,15.73l-.16.71c0,.12-.06.25-.08.37a24.17,24.17,0,0,0,5-1.67,17.18,17.18,0,0,0,7.53-6.17,10.21,10.21,0,0,0,1.07-9.24,2.46,2.46,0,0,0-1.7-1.63A2.51,2.51,0,0,0,221.17,74.6Zm-33.39-1.48a5.73,5.73,0,0,0-4.22,1.67,6.82,6.82,0,0,0-1.19,6.45,13.36,13.36,0,0,0,3.94,5.82,25.72,25.72,0,0,0,10.77,6,41.79,41.79,0,0,0-.41-5c-.81-5.76-2.16-10-4-12.65a5.81,5.81,0,0,0-4.41-2.23Z" fill="#d1d3d4"></path><path d="M146.16,275h97.49c1.3-15.25,3.29-33.89,6.12-45.19l41.3-39.42-28.15-26.82s-62.34,39.64-66.75,39.37c-5.62-.35-73.32-52.3-73.32-52.3l-12.53,38,36.17,48.77C146.49,250.37,146.35,264.08,146.16,275Z" fill="#6c63ff"></path><path d="M197.79,269.4a.52.52,0,0,1-.36-.16.5.5,0,0,1,0-.71c13.3-12.73,15.65-19.38,15.27-22.72a4.29,4.29,0,0,0-2.17-3.36.5.5,0,0,1-.24-.4.51.51,0,0,1,.18-.42c.72-.59,1.52-1.16,2.36-1.76,2.57-1.83,5.23-3.73,6.07-6.49,1.12-3.66-.65-8.75-2.08-12.85-.38-1.11-.75-2.16-1-3.12a.5.5,0,1,1,.95-.28c.29.93.65,2,1,3.07,1.47,4.24,3.3,9.5,2.09,13.47-.94,3.09-3.87,5.18-6.45,7-.62.44-1.22.87-1.78,1.3a5.25,5.25,0,0,1,2.06,3.71c.59,5.18-4.65,13.1-15.57,23.56A.52.52,0,0,1,197.79,269.4Z" fill="#231f20"></path><path d="M176.31,268a.5.5,0,0,1-.46-.3c-.34-.8-.78-1.74-1.27-2.8-2.91-6.27-7.79-16.77-4.87-23.07a8.28,8.28,0,0,1,4.7-4.25c-2.31-1.07-7-3.7-6.58-7.1.59-4.68,5.42-8.92,8.62-11.74l.18-.16a.51.51,0,0,1,.71.05.49.49,0,0,1-.05.7l-.18.17c-3.09,2.71-7.75,6.8-8.29,11.1-.38,3,5.05,5.77,7.17,6.58a.49.49,0,0,1,.32.49.51.51,0,0,1-.37.46,7.64,7.64,0,0,0-5.33,4.12c-2.72,5.88,2,16.12,4.88,22.23.49,1.06.93,2,1.28,2.82a.51.51,0,0,1-.26.66A.71.71,0,0,1,176.31,268Z" fill="#231f20"></path><polygon points="209.63 209.03 183.04 209.97 183.64 271.34 209.63 209.03" fill="#231f20"></polygon><path d="M183.64,271.84h-.1a.5.5,0,0,1-.4-.49l-.6-61.37a.49.49,0,0,1,.48-.5l26.59-.94a.49.49,0,0,1,.43.21.49.49,0,0,1,.05.48l-26,62.31A.5.5,0,0,1,183.64,271.84Zm-.1-61.39.58,58.45,24.75-59.34Z" fill="#231f20"></path><path d="M185,193.89,183,210s2.71,9.31,13.55,7.89,13-8.83,13-8.83L213.15,175s-3.48-1.06-7.06-19.47c0,0-8.42,5.3-23.92,1.61,0,0-3.54,17-3.39,25.34A13.45,13.45,0,0,0,185,193.89Z" fill="#fff"></path><path d="M194.42,218.5a12.37,12.37,0,0,1-11.87-8.39.67.67,0,0,1,0-.2l1.88-15.78a14,14,0,0,1-6.14-11.66c-.15-8.3,3.36-25.28,3.4-25.45a.45.45,0,0,1,.22-.32.5.5,0,0,1,.38-.06c15.09,3.58,23.47-1.5,23.55-1.56a.51.51,0,0,1,.76.33c3.39,17.47,6.7,19.08,6.73,19.1a.46.46,0,0,1,.32.52l-3.51,34.05c-.12.4-2.44,7.83-13.48,9.27A16,16,0,0,1,194.42,218.5Zm-10.88-8.58c.33,1,3.16,8.72,13,7.44,10.36-1.36,12.53-8.19,12.62-8.48l3.47-33.64c-1.06-.76-3.94-4.14-6.88-19-2.21,1.13-10.15,4.42-23.19,1.45-.58,2.87-3.4,17.34-3.27,24.72a13,13,0,0,0,5.84,10.94,1.25,1.25,0,0,1,.19.15.48.48,0,0,1,.14.41Z" fill="#231f20"></path><path d="M209,175.55c.9-2.45,3.14-3.93,5.56-4.72a5.79,5.79,0,0,1,4.87.35,5.67,5.67,0,0,1,2.13,5.95,9.47,9.47,0,0,1-6.39,7.18,8.55,8.55,0,0,1-6.45-.83" fill="#fff"></path><path d="M213,185.11a9,9,0,0,1-4.48-1.2.5.5,0,0,1,.5-.86,8,8,0,0,0,6.06.78,9,9,0,0,0,6-6.81c.38-1.79-.06-4.26-1.9-5.42a5.35,5.35,0,0,0-4.46-.3c-1.88.62-4.32,1.9-5.24,4.43a.49.49,0,0,1-.64.29.5.5,0,0,1-.3-.64c1.06-2.9,3.78-4.34,5.87-5a6.26,6.26,0,0,1,5.3.41,6.16,6.16,0,0,1,2.35,6.47,10,10,0,0,1-6.75,7.56A8.93,8.93,0,0,1,213,185.11Z" fill="#231f20"></path><path d="M193.79,166.62s-6.7,7.44-5.59,9,4.91,1.2,4.91,1.2" fill="#fff"></path><path d="M192,177.43c-1.32,0-3.36-.22-4.21-1.47-1.2-1.76,3.54-7.35,5.63-9.68a.5.5,0,1,1,.74.67c-3.43,3.81-6,7.75-5.55,8.44.77,1.12,3.47,1.09,4.44,1a.48.48,0,0,1,.55.44.5.5,0,0,1-.44.55C193,177.38,192.59,177.43,192,177.43Z" fill="#231f20"></path><path d="M193.27,185.11c-5.13,0-9.82-3.85-10-4a.49.49,0,0,1-.06-.7.5.5,0,0,1,.7-.07c.06,0,5.84,4.8,11.22,3.61,2.69-.59,4.85-2.59,6.44-5.94a.5.5,0,0,1,.9.43c-1.72,3.64-4.12,5.83-7.13,6.49A9.41,9.41,0,0,1,193.27,185.11Z" fill="#231f20"></path><path d="M183.64,164.79s.26-3.12,3-3.48,2.17,3.48,2.17,3.48" fill="#fff"></path><path d="M188.8,165.29h-.08a.5.5,0,0,1-.42-.56,3.68,3.68,0,0,0-.48-2.63,1.27,1.27,0,0,0-1.12-.29c-2.3.3-2.55,2.92-2.56,3a.5.5,0,0,1-.54.46.51.51,0,0,1-.46-.54c.1-1.22,1-3.61,3.43-3.94a2.2,2.2,0,0,1,2,.58c1.08,1.1.8,3.23.76,3.47A.5.5,0,0,1,188.8,165.29Z" fill="#231f20"></path><path d="M196.77,165.58s.26-3.12,3-3.48,2.16,3.48,2.16,3.48" fill="#fff"></path><path d="M201.93,166.08h-.07a.49.49,0,0,1-.42-.57,3.71,3.71,0,0,0-.49-2.62,1.24,1.24,0,0,0-1.12-.29c-2.29.3-2.55,2.91-2.56,3a.5.5,0,0,1-1-.09c.1-1.22.95-3.61,3.43-3.94a2.24,2.24,0,0,1,2,.59c1.07,1.1.79,3.23.75,3.47A.49.49,0,0,1,201.93,166.08Z" fill="#231f20"></path><path d="M185,193.89s9.72,3.51,16,.84c0,0-8.14,12.71-17.35,10.18Z" fill="#231f20"></path><path d="M186.14,205.75a10,10,0,0,1-2.63-.35.51.51,0,0,1-.37-.55l1.32-11a.51.51,0,0,1,.23-.37.52.52,0,0,1,.44,0c.09,0,9.62,3.41,15.66.85a.51.51,0,0,1,.58.14.5.5,0,0,1,0,.59C201.1,195.48,194.42,205.75,186.14,205.75Zm-1.95-1.22c6.9,1.54,13.23-5.81,15.49-8.82-5.41,1.46-12.25-.49-14.3-1.15Z" fill="#231f20"></path><path d="M146.21,270.71h0a.5.5,0,0,1-.48-.52c.38-10.27.24-18.35.11-26.17-.09-5.59-.18-10.87-.09-16.87a.49.49,0,0,1,.5-.49h0a.5.5,0,0,1,.5.5c-.09,6,0,11.26.09,16.84.13,7.83.27,15.93-.11,26.23A.5.5,0,0,1,146.21,270.71Z" fill="#231f20"></path><path d="M262.92,163.53q-10.74-13.36-21.45-26.74-5.33-6.64-10.65-13.31a40.55,40.55,0,0,0-4.59-5.43,9.69,9.69,0,0,1-2.91-10.84,15.84,15.84,0,0,0,1.47-5.07c.07-3.34-2.54-6.39-2.13-9.7a1.42,1.42,0,0,1,.23-.69c.48-.64,1.51-.26,2.13.25a9.54,9.54,0,0,1,2.59,3.35,49.52,49.52,0,0,0,8.91-11.55c.47-.85,1.17-1.85,2.13-1.71s1.38,1.47,1.27,2.5c-.27,2.45-1.78,4.55-3.12,6.61-1.08,1.66-1.32,13.54-.36,14.57,2.66,2.89,44,37.2,54.63,50.49,13.93,17.46,7.55,32.2,0,34.09S262.92,163.53,262.92,163.53Z" fill="#fff"></path><path d="M290.36,190.93c-8.27,0-26.91-25.81-27.84-27.1q-10.72-13.35-21.44-26.72-5.33-6.66-10.65-13.32c-.37-.46-.73-.93-1.09-1.41a26.71,26.71,0,0,0-3.44-3.95,10.23,10.23,0,0,1-3.05-11.4l.33-.82a12.29,12.29,0,0,0,1.11-4.08,12.15,12.15,0,0,0-1.06-4.41,11.34,11.34,0,0,1-1.07-5.34,1.91,1.91,0,0,1,.33-.93,1.32,1.32,0,0,1,.92-.53,2.77,2.77,0,0,1,1.93.69,10,10,0,0,1,2.41,2.91,49.14,49.14,0,0,0,8.33-11c.33-.6,1.22-2.17,2.65-2s1.83,1.71,1.69,3c-.26,2.35-1.57,4.34-2.84,6.27l-.37.57c-1,1.59-1.08,13-.4,14s4.34,3.91,9.37,8.27c14,12.17,37.54,32.54,45.28,42.24,10.4,13,8.61,23.08,7.35,26.79-1.43,4.23-4.28,7.26-7.62,8.09A3.2,3.2,0,0,1,290.36,190.93Zm-66.75-99h-.08a.31.31,0,0,0-.24.13,1,1,0,0,0-.13.45,10.38,10.38,0,0,0,1,4.87,13.17,13.17,0,0,1,1.13,4.78,12.78,12.78,0,0,1-1.19,4.43l-.31.81a9.21,9.21,0,0,0,2.77,10.28,27.34,27.34,0,0,1,3.57,4.1l1.08,1.4q5.31,6.66,10.65,13.31,10.71,13.38,21.45,26.73l0,0c5.47,7.63,20.58,26.7,27,26.7a2.39,2.39,0,0,0,.66-.08c3-.74,5.61-3.59,6.91-7.44,1.21-3.56,2.91-13.19-7.18-25.84-7.68-9.63-32.06-30.76-45.16-42.11-5.24-4.55-8.7-7.55-9.45-8.36-1.1-1.19-.86-13.39.31-15.18l.37-.56c1.2-1.84,2.44-3.73,2.67-5.84.08-.72-.13-1.84-.84-1.94-.51-.07-1,.38-1.62,1.46a50,50,0,0,1-9,11.66.52.52,0,0,1-.44.13.47.47,0,0,1-.36-.28,9,9,0,0,0-2.46-3.17A1.93,1.93,0,0,0,223.61,91.91Z" fill="#231f20"></path><path d="M141.31,163.53q10.74-13.36,21.45-26.74,5.34-6.64,10.65-13.31a40.55,40.55,0,0,1,4.59-5.43c3.13-2.74,3.92-6.31,3.09-10.49-.58-2.92-2-6-.93-8.73.52-1.28,1.53-2.31,2-3.6s0-3.12-1.31-3.38a2.59,2.59,0,0,0-2.35,1.22c-.59.79-1,2-1.92,2.35-2.88-5-4.72-10.25-7.15-15.46a5.1,5.1,0,0,0-1.16-1.75,1.88,1.88,0,0,0-2-.43,1.91,1.91,0,0,0-1,1.73,6.14,6.14,0,0,0,.41,2.06,116.1,116.1,0,0,1,2.72,11.92c.54,2.52,2.16,5.83,0,8.14-2.67,2.89-45.67,40.63-55.3,54.63-12,17.46-7.55,32.2,0,34.09S141.31,163.53,141.31,163.53Z" fill="#fff"></path><path d="M113.87,190.93a3.2,3.2,0,0,1-.83-.1c-2.87-.71-5.28-3.16-6.62-6.71-2.89-7.66-.53-18.18,6.33-28.14,7.47-10.86,34.94-35.95,48.14-48,3.83-3.5,6.61-6,7.2-6.68,1.52-1.65.89-3.9.27-6.08-.15-.56-.31-1.11-.42-1.62-.22-1.07-.43-2.13-.64-3.2a74.8,74.8,0,0,0-2.06-8.66,6.53,6.53,0,0,1-.45-2.24,2.44,2.44,0,0,1,1.33-2.17,2.36,2.36,0,0,1,2.48.51,5.67,5.67,0,0,1,1.28,1.92c.84,1.8,1.62,3.64,2.38,5.42a96.9,96.9,0,0,0,4.49,9.54,4.84,4.84,0,0,0,.82-1.13c.17-.28.35-.57.53-.81A3,3,0,0,1,181,91.36a2.18,2.18,0,0,1,1.48,1.1,3.65,3.65,0,0,1,.2,2.94,9.69,9.69,0,0,1-1.08,2,9.59,9.59,0,0,0-.92,1.64c-.77,1.9-.21,4,.39,6.17.2.74.41,1.51.56,2.27.92,4.65-.14,8.24-3.25,11a27.3,27.3,0,0,0-3.44,3.95c-.36.48-.72,1-1.09,1.41q-5.31,6.66-10.65,13.32-10.71,13.37-21.44,26.72C140.78,165.12,122.14,190.93,113.87,190.93Zm53-112.77a1,1,0,0,0-.39.07,1.51,1.51,0,0,0-.73,1.3,5.45,5.45,0,0,0,.38,1.83,76.37,76.37,0,0,1,2.11,8.84c.21,1.06.42,2.12.64,3.18.11.5.25,1,.41,1.56.62,2.21,1.39,5-.51,7-.62.68-3.26,3.09-7.26,6.74-13.17,12-40.58,37.07-48,47.84-6.67,9.69-9,19.87-6.21,27.22,1.22,3.23,3.38,5.46,5.92,6.09,5.93,1.49,21.95-18.71,27.62-26.62l0,0q10.74-13.35,21.45-26.73,5.32-6.64,10.65-13.31l1.08-1.4a27.92,27.92,0,0,1,3.57-4.1c2.82-2.46,3.78-5.74,2.93-10-.14-.72-.35-1.47-.55-2.2-.61-2.26-1.24-4.59-.35-6.81a11.36,11.36,0,0,1,1-1.81,8.38,8.38,0,0,0,1-1.77,2.63,2.63,0,0,0-.13-2.1,1.15,1.15,0,0,0-.8-.61,2.14,2.14,0,0,0-1.86,1,7.61,7.61,0,0,0-.47.73,4.11,4.11,0,0,1-1.65,1.78.5.5,0,0,1-.63-.21,92.89,92.89,0,0,1-4.81-10.11c-.75-1.77-1.53-3.6-2.37-5.39a4.56,4.56,0,0,0-1-1.59A1.61,1.61,0,0,0,166.91,78.16Z" fill="#231f20"></path><path d="M94.65,126.67a.49.49,0,0,1-.45-.29.5.5,0,0,1,.24-.67L146,101.81a.5.5,0,0,1,.66.24.49.49,0,0,1-.24.66L94.86,126.62A.54.54,0,0,1,94.65,126.67Z" fill="#d1d3d4"></path><path d="M146.23,77.4h-.06l-65-7.25a.5.5,0,0,1-.44-.55.48.48,0,0,1,.55-.44l65,7.24a.5.5,0,0,1,.44.56A.49.49,0,0,1,146.23,77.4Z" fill="#d1d3d4"></path><path d="M160.21,49.05A.46.46,0,0,1,160,49L127.64,32.94a.5.5,0,0,1-.23-.67.51.51,0,0,1,.67-.22L160.44,48.1a.5.5,0,0,1,.22.67A.51.51,0,0,1,160.21,49.05Z" fill="#d1d3d4"></path><path d="M305.35,126.67a.54.54,0,0,1-.21,0l-51.58-23.91a.49.49,0,0,1-.24-.66.5.5,0,0,1,.66-.24l51.58,23.9a.5.5,0,0,1,.24.67A.49.49,0,0,1,305.35,126.67Z" fill="#d1d3d4"></path><path d="M253.77,73.78a.49.49,0,0,1-.49-.45.5.5,0,0,1,.44-.55l65-7.25a.5.5,0,0,1,.55.45.5.5,0,0,1-.44.55l-65,7.24Z" fill="#d1d3d4"></path><path d="M247.58,52.27a.52.52,0,0,1-.45-.28.5.5,0,0,1,.23-.67l32.35-16a.5.5,0,0,1,.44.9l-32.35,16A.46.46,0,0,1,247.58,52.27Z" fill="#d1d3d4"></path><polygon points="113.71 90.72 115.4 94.15 119.18 94.7 116.44 97.37 117.09 101.13 113.71 99.36 110.32 101.13 110.97 97.37 108.23 94.7 112.02 94.15 113.71 90.72" fill="#d1d3d4"></polygon><polygon points="291.41 135.81 292.01 138.09 294.24 138.89 292.25 140.17 292.19 142.53 290.35 141.04 288.09 141.71 288.94 139.5 287.6 137.55 289.96 137.68 291.41 135.81" fill="#d1d3d4"></polygon><polygon points="110.32 45.73 113.06 51.28 119.18 52.17 114.75 56.49 115.8 62.58 110.32 59.7 104.84 62.58 105.89 56.49 101.46 52.17 107.58 51.28 110.32 45.73" fill="#d1d3d4"></polygon><polygon points="279.56 48.95 281.25 52.38 285.04 52.93 282.3 55.6 282.94 59.36 279.56 57.59 276.18 59.36 276.82 55.6 274.09 52.93 277.87 52.38 279.56 48.95" fill="#d1d3d4"></polygon><polygon points="89.98 139.29 94.8 144.54 101.84 143.54 98.35 149.74 101.47 156.14 94.5 154.73 89.38 159.68 88.56 152.6 82.28 149.27 88.75 146.31 89.98 139.29" fill="#d1d3d4"></polygon><polygon points="287.82 204.4 288.78 208.69 292.86 210.34 289.08 212.58 288.78 216.97 285.48 214.06 281.21 215.13 282.95 211.09 280.62 207.37 285 207.78 287.82 204.4" fill="#d1d3d4"></polygon><polygon points="168.3 31.96 169.99 35.39 173.77 35.94 171.04 38.61 171.68 42.38 168.3 40.6 164.91 42.38 165.56 38.61 162.82 35.94 166.61 35.39 168.3 31.96" fill="#d1d3d4"></polygon><polygon points="294.92 81.17 295.75 90.69 304.06 95.41 295.26 99.14 293.35 108.51 287.08 101.29 277.58 102.36 282.51 94.17 278.55 85.47 287.87 87.62 294.92 81.17" fill="#d1d3d4"></polygon><path d="M244,270.71h-.06a.5.5,0,0,1-.43-.56l7.19-54.73a.49.49,0,0,1,.56-.43.5.5,0,0,1,.43.56l-7.19,54.72A.5.5,0,0,1,244,270.71Z" fill="#231f20"></path></g></svg>