
<svg xmlns="http://www.w3.org/2000/svg" viewBox="0 0 400 300" width="406" height="306" class="illustration styles_illustrationTablet__1DWOa"><g id="_28" data-name="#28"><line x1="67.36" y1="265.35" x2="324.71" y2="239.17" fill="#fff"></line><path d="M67.36,265.85a.5.5,0,0,1,0-1l257.35-26.19a.5.5,0,1,1,.1,1L67.42,265.85Z" fill="#d1d3d4"></path><polygon points="143.42 239.19 142.07 262.82 174.17 287.6 264.34 276.21 266.32 257.69 236.5 231.29 143.42 239.19" fill="#fff"></polygon><path d="M174.17,288.1a.48.48,0,0,1-.3-.11l-32.1-24.77a.51.51,0,0,1-.2-.43l1.35-23.63a.49.49,0,0,1,.45-.47l93.09-7.9a.5.5,0,0,1,.37.12l29.82,26.41a.51.51,0,0,1,.17.43l-2,18.51a.5.5,0,0,1-.43.45l-90.16,11.38Zm-31.58-25.51,31.73,24.49,89.56-11.32,1.92-17.86-29.47-26.1-92.44,7.85Z" fill="#d1d3d4"></path><polygon points="236.5 231.29 143.42 239.19 174.74 267.66 266.32 257.69 236.5 231.29" fill="#fff"></polygon><path d="M174.74,268.16a.51.51,0,0,1-.34-.13l-31.32-28.47a.5.5,0,0,1-.14-.53.52.52,0,0,1,.43-.34l93.09-7.9a.5.5,0,0,1,.37.12l29.82,26.41a.5.5,0,0,1,.15.53.5.5,0,0,1-.42.34l-91.59,10ZM144.6,239.59l30.31,27.55,90.23-9.82L236.33,231.8Z" fill="#d1d3d4"></path><path d="M209.76,47c-13,7.9-23.66-2.65-23.77-2.76l-.9-.91,5.66-6.75,2.16,1.82L189,43.11c2.61,2.11,10.2,7,19.32,1.47Z" fill="#fff"></path><path d="M199.84,50.44c-8.31,0-14.12-5.76-14.2-5.84l-.9-.92a.49.49,0,0,1,0-.67l5.65-6.75a.51.51,0,0,1,.34-.17.54.54,0,0,1,.37.11L193.23,38a.45.45,0,0,1,.18.34.52.52,0,0,1-.11.36L189.68,43c3,2.29,10,6.21,18.36,1.13a.49.49,0,0,1,.37-.06.5.5,0,0,1,.31.22l1.47,2.42a.5.5,0,0,1-.17.69A19.42,19.42,0,0,1,199.84,50.44ZM185.77,43.3l.58.59c.1.11,10.28,10.12,22.72,2.94l-.95-1.56c-9.11,5.24-16.63.53-19.47-1.77a.52.52,0,0,1-.18-.34.53.53,0,0,1,.11-.37l3.63-4.33-1.4-1.17Z" fill="#231f20"></path><path d="M222.71,31.56l-2.64-1c3.86-9.94-2.28-16.57-4.82-18.77l-3.95,4.71-2.17-1.82,5.66-6.74,1.06.73C216,8.72,228.22,17.36,222.71,31.56Z" fill="#fff"></path><path d="M222.71,32.06a.39.39,0,0,1-.18,0l-2.64-1a.49.49,0,0,1-.27-.26.48.48,0,0,1,0-.39c3.53-9.12-1.54-15.33-4.31-17.87l-3.62,4.31a.49.49,0,0,1-.7.06L208.81,15a.57.57,0,0,1-.18-.34.5.5,0,0,1,.12-.37l5.65-6.74a.5.5,0,0,1,.67-.09l1.06.72c.13.09,12.7,9,7,23.52A.48.48,0,0,1,222.71,32.06Zm-2-1.81,1.71.66c4.9-13.51-6.74-21.78-6.86-21.86l-.68-.47-5,6,1.4,1.17,3.62-4.32a.5.5,0,0,1,.71-.06C218.33,13.78,224.29,20.36,220.71,30.25Z" fill="#231f20"></path><path d="M207.51,12.46,188.1,35.19s9.66,8.45,18,11.16c6.93,2.27,11.08,1.46,13.71,0a8,8,0,0,1,2.92,1.7A16.58,16.58,0,0,1,226,52.9l5.32-6.36a12.15,12.15,0,0,1-5.33-2.3,14.75,14.75,0,0,1-2.26-2.57c.86-3.4.43-8.91-2.49-14.1C217.32,20.57,207.51,12.46,207.51,12.46Z" fill="#fff"></path><path d="M226,53.4H226a.49.49,0,0,1-.39-.29,16.22,16.22,0,0,0-3.18-4.68,7.3,7.3,0,0,0-2.54-1.51c-3.48,1.82-8.16,1.79-13.91-.08-8.34-2.72-17.77-10.91-18.17-11.26a.5.5,0,0,1-.05-.7l19.41-22.74a.51.51,0,0,1,.7-.06c.4.34,9.93,8.26,13.87,15.25a20.9,20.9,0,0,1,2.59,14.24,14.73,14.73,0,0,0,2.06,2.3,11.75,11.75,0,0,0,5.08,2.19.49.49,0,0,1,.39.32.5.5,0,0,1-.08.5l-5.33,6.35A.51.51,0,0,1,226,53.4Zm-6.22-7.54a.4.4,0,0,1,.15,0,8.18,8.18,0,0,1,3.11,1.8A15.72,15.72,0,0,1,226.14,52l4.29-5.12a11.64,11.64,0,0,1-4.74-2.25A15,15,0,0,1,223.35,42a.47.47,0,0,1-.08-.41c.76-3,.58-8.38-2.44-13.74-3.42-6.06-11.43-13.09-13.26-14.65l-18.76,22c1.85,1.56,10.21,8.38,17.44,10.74,5.58,1.82,10.06,1.84,13.32,0A.5.5,0,0,1,219.81,45.86Z" fill="#231f20"></path><path d="M222.33,47.89h19.43a1.66,1.66,0,0,1,1.66,1.66v7.63a0,0,0,0,1,0,0H220.67a0,0,0,0,1,0,0V49.55a1.66,1.66,0,0,1,1.66-1.66Z" transform="translate(42.72 196.61) rotate(-50.03)" fill="#fff"></path><path d="M228.3,64.73a.57.57,0,0,1-.33-.11l-5.84-4.9a2.17,2.17,0,0,1-.27-3l12.49-14.9a2.14,2.14,0,0,1,1.46-.76,2.11,2.11,0,0,1,1.58.5l5.84,4.9a.48.48,0,0,1,.18.33.49.49,0,0,1-.12.37L228.68,64.55A.49.49,0,0,1,228.3,64.73ZM236,42a1.17,1.17,0,0,0-.89.41l-12.48,14.9a1.16,1.16,0,0,0,.14,1.63l5.46,4.58,14-16.67-5.46-4.58A1.19,1.19,0,0,0,236,42Z" fill="#231f20"></path><rect x="223.06" y="54.28" width="29.52" height="6.17" rx="1.58" transform="translate(41.07 202.76) rotate(-50.03)" fill="#fff"></rect><path d="M230.5,70.52a2,2,0,0,1-1.33-.49l-2.31-1.94a2.07,2.07,0,0,1-.26-2.92h0L243.54,45a2.07,2.07,0,0,1,2.92-.25l2.31,1.94a2.07,2.07,0,0,1,.26,2.92l-16.94,20.2A2.08,2.08,0,0,1,230.5,70.52Zm-3.13-4.71a1,1,0,0,0-.25.79,1.07,1.07,0,0,0,.38.73l2.31,1.94a1.1,1.1,0,0,0,1.52-.14l16.93-20.2a1,1,0,0,0,.25-.79,1.07,1.07,0,0,0-.38-.73l-2.31-1.94a1.08,1.08,0,0,0-1.52.14Z" fill="#231f20"></path><path d="M208.87,37.3a.53.53,0,0,1-.38-.18l-1.9-2.24-2.91.3a.5.5,0,0,1-.48-.76l1.54-2.5-1.18-2.68a.49.49,0,0,1,.07-.52.5.5,0,0,1,.51-.17l2.84.7,2.19-2a.52.52,0,0,1,.52-.09.49.49,0,0,1,.31.43l.22,2.92L212.76,32a.49.49,0,0,1,.24.47.48.48,0,0,1-.31.42L210,34l-.62,2.86a.5.5,0,0,1-.37.38Zm-2.07-3.44a.5.5,0,0,1,.39.18l1.41,1.66.46-2.13a.5.5,0,0,1,.3-.36l2-.83-1.89-1.1a.49.49,0,0,1-.24-.39l-.17-2.18-1.63,1.46a.49.49,0,0,1-.45.11l-2.12-.52.88,2a.47.47,0,0,1,0,.46l-1.15,1.86,2.17-.22Z" fill="#d1d3d4"></path><path d="M185.08,59.51a24,24,0,0,0,9.79-7.68,1.94,1.94,0,0,0,.46-1.13c0-1.07-1.29-1.72-.84-2.91.3-.79,2.27-1.29,1.87-2.29s-4-4.93-5.67-3.66-4.31,2.08-4.53,3.81-.21,2.94-.93,3.66S181,52.66,181,52.69,184.7,58.86,185.08,59.51Z" fill="#fff"></path><path d="M185.08,60a.48.48,0,0,1-.42-.25L184,58.7c-3.76-6.07-3.76-6.07-3.31-6.41,1.63-1.24,3.69-2.84,4.18-3.33a4.35,4.35,0,0,0,.7-2.52c0-.27.06-.56.1-.85.18-1.47,1.66-2.32,3.1-3.14a15.94,15.94,0,0,0,1.62-1,2,2,0,0,1,1.83-.24c1.92.55,4.22,3.17,4.6,4.12s-.49,1.57-1.13,2c-.3.21-.67.46-.73.64-.16.43,0,.74.33,1.26a2.86,2.86,0,0,1,.54,1.47,2.4,2.4,0,0,1-.55,1.41,24.51,24.51,0,0,1-10,7.86A.45.45,0,0,1,185.08,60Zm-3.47-7.17c.55,1,2.39,4,3.24,5.34l.43.69a23.36,23.36,0,0,0,9.18-7.32,1.64,1.64,0,0,0,.37-.84,1.87,1.87,0,0,0-.4-1,2.28,2.28,0,0,1-.41-2.13,2.79,2.79,0,0,1,1.1-1.11c.59-.4.85-.63.78-.82a8.88,8.88,0,0,0-4-3.53,1.07,1.07,0,0,0-1,.08,17.54,17.54,0,0,1-1.71,1.07c-1.28.74-2.49,1.43-2.61,2.4,0,.29-.07.57-.1.84-.14,1.34-.26,2.39-1,3.11S182.68,52,181.61,52.84Z" fill="#231f20"></path><path d="M206.49,93.55S170.19,82.44,170.77,77s19.34-17.33,19.34-17.33l-9.19-9.77S153.15,64.54,152,78.9s32.08,30.16,32.08,30.16Z" fill="#6c63ff"></path><path d="M186.94,243.24s-.66,4.27.33,5.91a17.61,17.61,0,0,1,2.3,7.56,8.53,8.53,0,0,1-6.24,2.84c-3.94,0-7.89-2.95-8.32-4.38s3.17-16.53,3.17-16.53Z" fill="#fff"></path><path d="M183.33,260.05c-4.25,0-8.3-3.11-8.8-4.73s2.56-14.25,3.16-16.79a.51.51,0,0,1,.28-.34.49.49,0,0,1,.44,0l8.76,4.6a.49.49,0,0,1,.26.52c-.17,1.14-.46,4.36.27,5.58a17.81,17.81,0,0,1,2.36,7.75.49.49,0,0,1-.1.37A9,9,0,0,1,183.33,260.05Zm-4.81-20.67c-1.67,7.05-3.27,14.77-3,15.65.35,1.16,4.09,4,7.84,4a8.07,8.07,0,0,0,5.71-2.51,16.76,16.76,0,0,0-2.2-7.13c-.91-1.52-.59-4.76-.44-5.89Z" fill="#231f20"></path><path d="M219.37,148.76,200,152.29l.55-55s16-2.3,19.6-.21S219.37,148.76,219.37,148.76Z" fill="#fff"></path><path d="M200,152.79a.5.5,0,0,1-.33-.12.46.46,0,0,1-.17-.38l.55-55a.5.5,0,0,1,.43-.49c.66-.09,16.19-2.29,19.92-.14s.21,43.85-.54,52.19a.49.49,0,0,1-.4.44l-19.38,3.53Zm1.05-55.1-.55,54,18.4-3.35c2.1-23.8,3.16-49.61,1-50.86C217.14,95.89,205.75,97,201.05,97.69Zm18.32,51.07h0Z" fill="#231f20"></path><path d="M214.09,234.34v12.84l6.13,1.75-.15-2.62,2.78,2.77s16.47,3,16.38.77-1.75-3.4-3.83-4.49c-2.23-1.18-8.1-4.49-8.1-4.49l-.88-9.42" fill="#fff"></path><path d="M236.16,251.14a95,95,0,0,1-13.4-1.57.54.54,0,0,1-.27-.14l-1.85-1.85.08,1.33a.48.48,0,0,1-.19.41.46.46,0,0,1-.45.09L214,247.66a.5.5,0,0,1-.36-.48V234.34a.5.5,0,0,1,.5-.5.5.5,0,0,1,.5.5V246.8l5.09,1.46-.11-1.93a.5.5,0,0,1,.3-.48.52.52,0,0,1,.56.1l2.66,2.66c7,1.26,15,2.06,15.66,1.2-.09-1.8-1.5-2.91-3.58-4s-8.06-4.46-8.12-4.5a.48.48,0,0,1-.25-.38l-.88-9.42a.5.5,0,0,1,1-.09l.85,9.15c1.1.62,5.91,3.33,7.86,4.36s4,2.43,4.1,4.91a.93.93,0,0,1-.34.74A5.85,5.85,0,0,1,236.16,251.14Z" fill="#231f20"></path><path d="M184.65,152.59l-11.39,89.77s.48,3.57,8.22,4,7-1.38,7-1.38l18.4-63.79,5,56.77,16.7,1-3.32-93.38Z" fill="#231f20"></path><path d="M183.72,246.94c-.69,0-1.44,0-2.27-.07-8-.46-8.67-4.28-8.69-4.44v-.13l11.4-89.77a.49.49,0,0,1,.41-.43l40.53-7a.5.5,0,0,1,.4.1.53.53,0,0,1,.18.37L229,239a.5.5,0,0,1-.15.37.49.49,0,0,1-.38.14l-16.7-1a.5.5,0,0,1-.47-.45l-4.72-54.12L189,245a1.09,1.09,0,0,1-.2.73C188.19,246.54,186.54,246.94,183.72,246.94Zm-10-4.6c.11.4,1.08,3.15,7.75,3.53,6.05.34,6.45-.73,6.45-.75a.29.29,0,0,1,0-.27l18.4-63.79a.5.5,0,0,1,.53-.36.49.49,0,0,1,.44.45l4.93,56.35,15.72,1-3.28-92.26L185.1,153Z" fill="#231f20"></path><path d="M204.7,90.71s.26,63.42-3,66.94S185,165,179.6,159.83s2.11-54,5.1-57.87C192.5,96.53,204.7,90.71,204.7,90.71Z" fill="#6c63ff"></path><path d="M231.91,95.85s3.94,61.59,2,63.17-14.28,4.21-16.74,2.23-2.28-67.49-2.28-67.49S225.49,94.62,231.91,95.85Z" fill="#6c63ff"></path><polygon points="211.03 103.24 209.28 105.7 214.92 142.82 210.9 147.8 205.93 143.35 207.56 106.07 205.66 103.35 208.13 101.63 211.03 103.24" fill="#d1d3d4"></polygon><path d="M214,89l1.61,7.89s-.29,3.81-5.82,3.66-7.07-3.61-7.07-3.61l-2.48-14.81s2.83-2.94-.12-11.17c0,0,8.65.77,16.26-1.89,0,0,2.15,9.56,2.39,13.76S214,89,214,89Z" fill="#fff"></path><path d="M210.15,101.05h-.33c-5.78-.16-7.45-3.75-7.52-3.9a.56.56,0,0,1,0-.12l-2.47-14.82a.53.53,0,0,1,.13-.43s2.56-2.89-.23-10.65a.47.47,0,0,1,.08-.47.46.46,0,0,1,.44-.19c.08,0,8.63.72,16-1.87a.53.53,0,0,1,.41,0,.5.5,0,0,1,.25.32c.09.4,2.16,9.64,2.39,13.85.22,3.84-3.46,5.91-4.69,6.49l1.53,7.49a.57.57,0,0,1,0,.13S215.77,101.05,210.15,101.05Zm-6.91-4.26c.22.42,1.79,3.13,6.61,3.26s5.23-2.67,5.29-3.14l-1.59-7.81a.49.49,0,0,1,.31-.56s4.66-1.89,4.45-5.68a116.39,116.39,0,0,0-2.26-13.13,44.71,44.71,0,0,1-15.17,1.78c2.26,6.82.52,10-.07,10.76Z" fill="#231f20"></path><path d="M202.68,81.18a3.51,3.51,0,0,0-1.55-1.59,6.21,6.21,0,0,0-2-.53,2.47,2.47,0,0,0-1.15,0,1.91,1.91,0,0,0-.69.43,2.67,2.67,0,0,0-1,1.6,3.28,3.28,0,0,0,.25,1.51,6.15,6.15,0,0,0,.75,1.52,4.27,4.27,0,0,0,6,1" fill="#fff"></path><path d="M200.73,86.46a4.9,4.9,0,0,1-.77-.06,4.78,4.78,0,0,1-3.11-2,6.68,6.68,0,0,1-.81-1.63,3.71,3.71,0,0,1-.27-1.75,3.18,3.18,0,0,1,1.15-1.91,2.59,2.59,0,0,1,.85-.53,3.09,3.09,0,0,1,1.38-.06,6.69,6.69,0,0,1,2.2.59A4,4,0,0,1,203.13,81a.5.5,0,0,1-.9.44A3,3,0,0,0,200.9,80a5.61,5.61,0,0,0-1.88-.48,2,2,0,0,0-.92,0,1.71,1.71,0,0,0-.53.33,2.25,2.25,0,0,0-.81,1.3,2.74,2.74,0,0,0,.22,1.27,5.69,5.69,0,0,0,.69,1.4,3.76,3.76,0,0,0,5.27.88.5.5,0,0,1,.7.11.51.51,0,0,1-.11.7A4.77,4.77,0,0,1,200.73,86.46Z" fill="#231f20"></path><path d="M210.9,76.07s3.75,3.39,3.28,4.26-2.41.86-2.41.86" fill="#fff"></path><path d="M211.79,81.69h0a.5.5,0,0,1,0-1h0c.66,0,1.73-.19,2-.6,0-.38-1.48-2.12-3.18-3.65a.5.5,0,0,1,0-.71.49.49,0,0,1,.7,0c1.85,1.67,3.93,3.87,3.39,4.87S212.1,81.69,211.79,81.69Z" fill="#231f20"></path><path d="M214,89s-4.11.75-6.23,0c0,0,2.44,4.41,7.12,4.79Z" fill="#231f20"></path><path d="M214.93,94.26h0c-4.89-.4-7.41-4.86-7.51-5.05a.5.5,0,0,1,.05-.56.5.5,0,0,1,.55-.15c2,.72,5.93,0,6,0a.51.51,0,0,1,.58.4l.89,4.76a.46.46,0,0,1-.12.42A.48.48,0,0,1,214.93,94.26Zm-6-4.52a9.09,9.09,0,0,0,5.37,3.44l-.68-3.61A19.2,19.2,0,0,1,209,89.74Z" fill="#231f20"></path><path d="M226,155.79a.46.46,0,0,1-.35-.14l-6.6-6.53a.51.51,0,0,1,0-.71.5.5,0,0,1,.71,0l6.59,6.53a.48.48,0,0,1,0,.7A.47.47,0,0,1,226,155.79Z" fill="#231f20"></path><path d="M185.84,152.17a.5.5,0,0,1-.24-.94c4.6-2.46,9.6-5.34,10-5.91a.49.49,0,0,1,.65-.24.53.53,0,0,1,.25.68c-.38.87-6.71,4.36-10.45,6.35A.46.46,0,0,1,185.84,152.17Z" fill="#231f20"></path><path d="M216.59,120.57a.49.49,0,0,1-.32-.12.51.51,0,0,1-.06-.71l7.62-8.91-4.51-3.49a.49.49,0,0,1-.2-.43.53.53,0,0,1,.26-.4l4.09-2.23-4.37-5.23a.5.5,0,0,1,.07-.71.49.49,0,0,1,.7.07l4.76,5.7a.48.48,0,0,1,.11.41.51.51,0,0,1-.25.35l-4,2.15,4.32,3.35a.46.46,0,0,1,.19.34.49.49,0,0,1-.12.38l-8,9.3A.49.49,0,0,1,216.59,120.57Z" fill="#231f20"></path><path d="M207,184.18h-.08a.5.5,0,0,1-.42-.57c0-.2,3.27-20.35,3.06-24a.5.5,0,0,1,.47-.52.51.51,0,0,1,.53.46c.22,3.74-2.94,23.36-3.07,24.2A.51.51,0,0,1,207,184.18Z" fill="#fff"></path><path d="M194.71,78.58a.5.5,0,0,1-.46-.31,10,10,0,0,1,2-10.37l.12-.13a2.76,2.76,0,0,0,.52-.64,3.86,3.86,0,0,0,.19-.6l0-.19A8.75,8.75,0,0,1,201.73,61a19.42,19.42,0,0,1,6.82-1.77,14.84,14.84,0,0,1,5.55.18,6.38,6.38,0,0,1,4.37,3.6,4.28,4.28,0,0,1-1.77,5.3A.49.49,0,0,1,216,68a.5.5,0,0,1,.22-.67,3.28,3.28,0,0,0,1.29-4.05,5.38,5.38,0,0,0-3.7-3,13.9,13.9,0,0,0-5.18-.16,18.61,18.61,0,0,0-6.47,1.67,7.74,7.74,0,0,0-4.12,4.74l0,.18a3.42,3.42,0,0,1-.27.82,3.7,3.7,0,0,1-.69.89l-.11.11a9.07,9.07,0,0,0-1.78,9.32.5.5,0,0,1-.28.64A.43.43,0,0,1,194.71,78.58Z" fill="#231f20"></path><path d="M201.18,121.65a.49.49,0,0,1-.4-.2L193,110.88a.5.5,0,0,1,0-.65l4.72-4.87-5.9-1.54a.48.48,0,0,1-.35-.34.5.5,0,0,1,.11-.48l7.12-7.62a.5.5,0,0,1,.7,0,.5.5,0,0,1,0,.71l-6.54,7,5.91,1.54a.51.51,0,0,1,.36.35.5.5,0,0,1-.12.48l-5,5.18,7.52,10.23a.49.49,0,0,1-.11.7A.45.45,0,0,1,201.18,121.65Z" fill="#231f20"></path><path d="M205.05,75.55s1.15-2.3,3.25-.39" fill="#fff"></path><path d="M205.05,76.05a.49.49,0,0,1-.23-.06.5.5,0,0,1-.22-.67,2.76,2.76,0,0,1,1.73-1.38,2.69,2.69,0,0,1,2.31.85.5.5,0,0,1,0,.71.48.48,0,0,1-.7,0,1.79,1.79,0,0,0-1.45-.61,1.7,1.7,0,0,0-1,.85A.5.5,0,0,1,205.05,76.05Z" fill="#231f20"></path><path d="M212.71,75.26s.57-2.87,2.87-1.05" fill="#fff"></path><path d="M212.71,75.76h-.1a.51.51,0,0,1-.39-.59,2.73,2.73,0,0,1,1.42-2,2.34,2.34,0,0,1,2.25.61.5.5,0,0,1-.62.79c-.36-.29-.88-.61-1.28-.46s-.74,1-.79,1.22A.5.5,0,0,1,212.71,75.76Z" fill="#231f20"></path><path d="M216.54,81.2s-5.31,8.61-9.62.57" fill="#fff"></path><path d="M211.13,85.7H211c-1.73,0-3.26-1.29-4.54-3.69a.5.5,0,0,1,.2-.68.51.51,0,0,1,.68.2c1.1,2.06,2.34,3.13,3.69,3.17,2.64.07,5-3.73,5.06-3.77a.51.51,0,0,1,.69-.16.49.49,0,0,1,.16.69C216.86,81.63,214.31,85.7,211.13,85.7Z" fill="#231f20"></path><path d="M240.77,72s-3.07-3-3.16-5.17.76-3.25,1.43-6-1-4,.1-5.65S242.3,50.56,244,51A2.73,2.73,0,0,1,246,53l1.34-2.11s1,2.59-.67,6.42.48,9.76.48,9.76Z" fill="#fff"></path><path d="M240.77,72.5a.46.46,0,0,1-.35-.14c-.13-.12-3.21-3.13-3.31-5.51a9,9,0,0,1,.7-3.71,23.45,23.45,0,0,0,.75-2.46,5.82,5.82,0,0,0-.11-2.93,3.14,3.14,0,0,1,.28-2.89l.13-.18c1.31-1.87,3.3-4.68,5.29-4.13a3.36,3.36,0,0,1,1.95,1.36l.85-1.34a.5.5,0,0,1,.89.1c0,.11,1,2.82-.68,6.78-1.53,3.61.47,9.35.49,9.41a.5.5,0,0,1-.16.56l-6.42,5A.49.49,0,0,1,240.77,72.5Zm2.86-21c-1.3,0-3,2.43-4,3.78l-.12.18c-.47.66-.34,1.23-.13,2.08a6.78,6.78,0,0,1,.11,3.4,24.38,24.38,0,0,1-.78,2.55,8.08,8.08,0,0,0-.64,3.34c.06,1.47,1.76,3.54,2.7,4.53l5.78-4.49c-.43-1.36-1.82-6.32-.35-9.79a10.23,10.23,0,0,0,.88-4.88l-.67,1a.49.49,0,0,1-.51.22.5.5,0,0,1-.4-.39,2.21,2.21,0,0,0-1.65-1.53A.78.78,0,0,0,243.63,51.48Z" fill="#231f20"></path><path d="M231.91,95.85s17.12.94,18.61-3.09-13.15-20.47-13.15-20.47L248.57,64s24.48,28.08,19,38.49-38.64,14.65-38.64,14.65Z" fill="#6c63ff"></path><line x1="174.74" y1="267.66" x2="174.17" y2="287.6" fill="#fff"></line><path d="M174.17,288.1h0a.51.51,0,0,1-.49-.52l.57-19.93a.52.52,0,0,1,.51-.49.51.51,0,0,1,.49.51l-.57,19.94A.5.5,0,0,1,174.17,288.1Z" fill="#d1d3d4"></path><path d="M178,141.12h0a.49.49,0,0,1-.48-.51c.57-20.35,7.56-42.45,7.63-42.66a.5.5,0,1,1,.94.32c-.07.2-7,22.16-7.57,42.37A.5.5,0,0,1,178,141.12Z" fill="#231f20"></path><path d="M234.61,146.75h0a.5.5,0,0,1-.49-.5c.28-15.27-4.17-41-4.21-41.3a.5.5,0,0,1,.4-.58.51.51,0,0,1,.58.41c.05.26,4.51,26.13,4.23,41.48A.49.49,0,0,1,234.61,146.75Z" fill="#231f20"></path><path d="M286.7,159h-.11a.5.5,0,0,1-.48-.52.49.49,0,0,1,.51-.48,3.16,3.16,0,0,0,3.07-3.27,6.83,6.83,0,0,0-.32-1.32,8.3,8.3,0,0,1-.35-1.45c-.3-2.68,1.79-5,6.21-6.86a.5.5,0,0,1,.39.92c-4,1.68-5.85,3.64-5.61,5.83a7.82,7.82,0,0,0,.31,1.27,6.79,6.79,0,0,1,.36,1.51,3.94,3.94,0,0,1-1.11,3.06A4,4,0,0,1,286.7,159Z" fill="#d1d3d4"></path><path d="M131.57,49.25a.5.5,0,0,1,0-1,1,1,0,0,0,.79-.52,2.39,2.39,0,0,0,.14-2,7.73,7.73,0,0,0-1.11-1.76,11.07,11.07,0,0,1-1.08-1.64,3.7,3.7,0,0,1-.15-3,2.1,2.1,0,0,1,1.3-1.24.5.5,0,0,1,.31,1,1.11,1.11,0,0,0-.69.67,2.76,2.76,0,0,0,.12,2.12,9.63,9.63,0,0,0,1,1.49,8.77,8.77,0,0,1,1.24,2,3.38,3.38,0,0,1-.22,2.93,2,2,0,0,1-1.57,1Z" fill="#d1d3d4"></path><path d="M153.1,159.58a2.07,2.07,0,0,1-1.07-.31.5.5,0,0,1-.16-.69.49.49,0,0,1,.68-.16,1.15,1.15,0,0,0,1.27-.09,2.71,2.71,0,0,0,1.14-2.44,8.16,8.16,0,0,0-1.32-3,15.74,15.74,0,0,1-1-1.81,5,5,0,0,1-.07-3.89,2.6,2.6,0,0,1,1.65-1.45.5.5,0,1,1,.27,1,1.58,1.58,0,0,0-1,.91,4,4,0,0,0,.08,3.06,15.86,15.86,0,0,0,.94,1.69,9.13,9.13,0,0,1,1.45,3.35,3.74,3.74,0,0,1-1.58,3.42A2.33,2.33,0,0,1,153.1,159.58Z" fill="#d1d3d4"></path><path d="M276.56,51.28a1.5,1.5,0,0,0,0,3A1.5,1.5,0,0,0,276.56,51.28Z" fill="#d1d3d4"></path><path d="M248.37,161.39l-3.74-.75,1.19-5.95,3.74.74Zm-2.56-1.54,1.78.36.79-4-1.78-.35Z" fill="#d1d3d4"></path><path d="M138.24,93.28l-1.5-4.41,3.35-1.14,1.49,4.42ZM138,89.49l.85,2.52,1.46-.49L139.46,89Z" fill="#d1d3d4"></path><path d="M102,77a1,1,0,0,0,0,2A1,1,0,0,0,102,77Z" fill="#d1d3d4"></path><path d="M122.27,159.77c-2.57,0-2.58,4,0,4S124.85,159.77,122.27,159.77Z" fill="#d1d3d4"></path><path d="M91,245.19a.5.5,0,0,1-.5-.43,19.38,19.38,0,0,1,22-21.57,21.78,21.78,0,0,1,28.85-25.8c.91-4.9,2.05-10,4.65-14.47,3-5.16,7.74-8.57,12.65-9.11,6.42-.7,11.56,3.78,12.33,8.43a.5.5,0,0,1-.41.57.51.51,0,0,1-.58-.41c-.76-4.62-6-8.17-11.23-7.6-4.59.51-9,3.73-11.9,8.63-2.62,4.49-3.73,9.74-4.64,14.74a.48.48,0,0,1-.25.35.5.5,0,0,1-.43,0,20.78,20.78,0,0,0-27.87,25.13.5.5,0,0,1-.11.48.49.49,0,0,1-.46.15,18.38,18.38,0,0,0-21.66,20.33.49.49,0,0,1-.43.56Z" fill="#d1d3d4"></path><path d="M266.43,173.47a1.5,1.5,0,0,0,0,3A1.5,1.5,0,0,0,266.43,173.47Z" fill="#d1d3d4"></path><path d="M281.07,116a1.5,1.5,0,0,0,0,3A1.5,1.5,0,0,0,281.07,116Z" fill="#d1d3d4"></path><path d="M99.05,143.48H99a.49.49,0,0,1-.41-.57A8.77,8.77,0,0,0,96,135.3l-.33-.3A4,4,0,0,1,94,132.43a3.77,3.77,0,0,1,1.29-2.67,5.21,5.21,0,0,0,1-1.44c.6-1.56-.78-3.22-2-4.69l-.28-.34a5.9,5.9,0,0,1-1.39-4.49A2.45,2.45,0,0,1,94,117.05a.5.5,0,1,1,.44.89,1.45,1.45,0,0,0-.79,1.06,4.9,4.9,0,0,0,1.18,3.66l.28.34c1.32,1.59,3,3.57,2.16,5.67a6,6,0,0,1-1.19,1.75c-.58.67-1.08,1.25-1,2s.66,1.29,1.32,1.89l.34.32a9.76,9.76,0,0,1,2.85,8.48A.51.51,0,0,1,99.05,143.48Z" fill="#d1d3d4"></path><path d="M302.41,78.66a.49.49,0,0,1-.32-.12.51.51,0,0,1-.06-.71,4.76,4.76,0,0,0,.2-5.74l-.23-.3c-.78-1-1.85-2.43-.85-3.59a2.57,2.57,0,0,1,1.73-.72,3.16,3.16,0,0,0,.94-.23,1.19,1.19,0,0,0,.58-.74,3.12,3.12,0,0,0-.33-2.19c-.2-.36-.44-.72-.68-1.07a6.64,6.64,0,0,1-1.26-2.65A2.81,2.81,0,0,1,303.36,58a1.68,1.68,0,0,1,1.88-.05.49.49,0,0,1,.15.69.5.5,0,0,1-.69.15.7.7,0,0,0-.8,0,1.84,1.84,0,0,0-.78,1.66,5.71,5.71,0,0,0,1.1,2.24c.26.38.51.76.73,1.15a4,4,0,0,1,.4,3,2.13,2.13,0,0,1-1.07,1.32,4,4,0,0,1-1.26.34,1.71,1.71,0,0,0-1.11.38c-.44.51.12,1.32.89,2.33l.23.31a5.79,5.79,0,0,1-.24,7A.49.49,0,0,1,302.41,78.66Z" fill="#d1d3d4"></path><path d="M331.19,109.28a1.5,1.5,0,0,0,0,3A1.5,1.5,0,0,0,331.19,109.28Z" fill="#d1d3d4"></path><path d="M299.91,231.1a.51.51,0,0,1-.45-.29c-1.92-4.05-4.16-6.65-6.85-7.94-3-1.44-7.38-.94-9.13,2.09a.5.5,0,0,1-.5.25.5.5,0,0,1-.41-.37c-1.38-5.24-4.8-9.43-9.15-11.2-4.74-1.94-10.58-.48-13.3,3.32a.5.5,0,0,1-.56.18.51.51,0,0,1-.34-.48c.07-5.69-2.56-12.69-8.58-15.51a11.75,11.75,0,0,0-9.8.22,9,9,0,0,0-5.09,5.91.5.5,0,0,1-.6.37.49.49,0,0,1-.37-.6,10,10,0,0,1,5.63-6.58,12.68,12.68,0,0,1,10.65-.22c5.95,2.78,8.8,9.34,9.13,15.07a12.55,12.55,0,0,1,13.61-2.61,17.1,17.1,0,0,1,9.44,10.86c2.3-2.71,6.71-3.08,9.8-1.6,2.91,1.4,5.31,4.15,7.32,8.41a.5.5,0,0,1-.23.67A.59.59,0,0,1,299.91,231.1Z" fill="#d1d3d4"></path></g></svg>