<?xml version="1.0" standalone="no"?>
<!DOCTYPE svg PUBLIC "-//W3C//DTD SVG 20010904//EN"
 "http://www.w3.org/TR/2001/REC-SVG-20010904/DTD/svg10.dtd">
<svg version="1.0" xmlns="http://www.w3.org/2000/svg"
 width="512.000000pt" height="512.000000pt" viewBox="0 0 512.000000 512.000000"
 preserveAspectRatio="xMidYMid meet">
<metadata>
Created by potrace 1.14, written by Peter Selinger 2001-2017
</metadata>
<g transform="translate(0.000000,512.000000) scale(0.100000,-0.100000)"
fill="#000000" stroke="none">
<path d="M1678 5115 c-1 -2 -31 -6 -65 -9 -204 -19 -519 -116 -723 -224 -92
-48 -232 -131 -240 -142 -3 -3 -27 -21 -54 -40 -69 -46 -257 -234 -300 -298
-25 -37 -33 -60 -30 -79 12 -65 44 -89 129 -97 251 -25 365 -57 495 -141 207
-135 275 -300 274 -665 0 -118 -12 -364 -19 -401 -2 -9 -6 -65 -10 -125 -4
-60 -9 -122 -11 -139 -23 -183 -23 -665 0 -780 2 -11 7 -41 10 -66 23 -169
111 -394 217 -550 60 -89 239 -265 334 -328 111 -73 330 -180 452 -220 l103
-34 -23 -29 c-12 -17 -26 -37 -32 -47 -5 -9 -12 -18 -16 -21 -3 -3 -16 -30
-29 -60 -18 -42 -24 -77 -26 -145 -5 -142 37 -250 132 -342 87 -85 169 -121
294 -127 134 -7 237 33 335 130 99 97 129 172 130 324 0 94 -3 111 -28 164
-33 71 -33 74 -4 73 22 -1 216 11 273 17 43 5 145 17 164 21 8 1 35 6 60 10
25 4 52 9 60 10 8 2 62 13 120 24 81 17 281 65 385 95 100 28 440 150 530 191
27 13 88 39 135 59 47 20 98 46 113 59 37 29 50 84 29 127 -16 34 -34 44 -152
85 -221 76 -487 197 -615 280 -31 19 -60 35 -65 35 -6 0 -10 4 -10 9 0 5 -8
11 -17 13 -10 3 -74 47 -143 98 -152 113 -350 310 -442 440 -57 81 -196 330
-184 330 2 0 -5 24 -16 53 -52 136 -75 277 -83 527 -6 150 -8 187 -30 410 -1
14 -5 48 -9 75 -4 28 -9 64 -11 80 -3 17 -7 41 -10 55 -2 13 -7 42 -11 64 -3
22 -7 43 -9 47 -2 3 -7 21 -10 40 -30 177 -146 490 -234 629 -75 120 -179 241
-241 283 -62 42 -149 1 -158 -75 -4 -37 16 -73 83 -142 69 -72 144 -186 191
-286 19 -41 39 -82 44 -92 7 -12 2 -27 -19 -55 -124 -173 -169 -247 -261 -431
-110 -221 -213 -520 -246 -712 -13 -75 -15 -93 -19 -128 -3 -20 -7 -50 -9 -67
-19 -131 -26 -377 -12 -475 3 -25 8 -65 11 -89 38 -310 194 -611 393 -763 31
-23 63 -48 69 -55 20 -18 158 -81 226 -102 103 -33 176 -44 297 -45 237 -2
420 36 702 146 l77 30 106 -61 c106 -62 289 -152 378 -186 26 -10 47 -19 47
-21 0 -10 -119 -57 -280 -112 -250 -85 -400 -126 -610 -166 -47 -9 -94 -18
-106 -20 -12 -2 -45 -7 -75 -11 -30 -3 -61 -8 -69 -10 -78 -20 -551 -28 -690
-13 -312 36 -560 123 -811 284 -62 40 -170 131 -195 164 -7 8 -24 29 -39 45
-44 50 -86 115 -120 184 -33 67 -81 193 -89 234 -28 135 -38 194 -44 262 -9
107 -8 378 2 493 4 51 9 116 11 145 7 108 16 233 20 267 26 206 25 605 0 742
-10 53 -14 66 -35 127 -65 194 -187 331 -385 434 -104 54 -191 83 -309 105
l-38 7 47 40 c26 22 59 50 74 63 55 48 194 134 298 186 115 58 290 126 321
126 10 0 22 3 26 7 3 4 12 8 19 9 7 1 53 11 102 22 141 32 178 35 370 37 192
1 213 5 234 52 20 43 10 95 -24 129 -20 20 -96 30 -237 31 -75 1 -138 0 -140
-2z m1128 -1151 c2 -16 13 -69 24 -119 10 -49 22 -115 25 -145 3 -30 8 -62 10
-70 2 -8 7 -42 10 -75 3 -33 8 -73 10 -90 3 -30 11 -160 20 -360 3 -60 7 -126
10 -145 2 -19 7 -56 10 -82 6 -52 44 -205 70 -284 56 -168 169 -372 291 -526
89 -112 287 -306 384 -376 l37 -26 -51 -18 c-300 -107 -610 -120 -810 -36
-260 110 -426 363 -483 738 -10 71 -10 414 0 504 18 147 55 307 114 491 39
121 40 126 125 305 54 114 189 353 196 345 2 -1 5 -15 8 -31z m-146 -3294 c56
-30 91 -65 115 -115 76 -162 -36 -337 -215 -338 -103 0 -176 47 -219 143 -75
165 68 354 249 330 25 -3 56 -12 70 -20z"/>
<path d="M2203 5035 c-83 -36 -87 -156 -6 -194 77 -36 150 -9 167 62 17 66
-21 115 -109 140 -11 3 -34 0 -52 -8z"/>
<path d="M1462 4580 c-48 -22 -65 -62 -57 -133 13 -108 81 -202 182 -252 49
-24 71 -29 138 -29 68 0 90 4 136 27 110 53 178 151 187 268 4 58 2 68 -19 92
-65 74 -189 30 -189 -68 0 -86 -103 -138 -177 -90 -27 18 -53 71 -53 107 0 32
-39 77 -76 87 -24 7 -42 4 -72 -9z"/>
</g>
</svg>
